<svg width="97" height="142" viewBox="0 0 97 142" fill="none" xmlns="http://www.w3.org/2000/svg">
<path fill-rule="evenodd" clip-rule="evenodd" d="M72.6566 11.6962L90.0146 21.9027C94.1332 24.3244 96.6774 28.7311 96.7154 33.5088L96.8755 53.6445L96.7154 73.7802C96.6774 78.5579 94.1332 82.9646 90.0146 85.3863L72.6566 95.5928L55.1385 105.522C50.982 107.878 45.8935 107.878 41.7369 105.522L24.2189 95.5928L6.86085 85.3863C2.74226 82.9646 0.198041 78.5579 0.160062 73.7802L0 53.6445L0.160062 33.5088C0.198041 28.7311 2.74226 24.3244 6.86086 21.9027L24.2189 11.6962L41.737 1.76696C45.8935 -0.588987 50.982 -0.588985 55.1385 1.76696L72.6566 11.6962ZM53.2772 5.05089C50.2752 3.34937 46.6003 3.34937 43.5983 5.05089L26.1063 14.9653L8.77416 25.1566C5.79962 26.9056 3.96212 30.0883 3.9347 33.5388L3.77487 53.6445L3.9347 73.7502C3.96212 77.2008 5.79962 80.3834 8.77415 82.1324L26.1063 92.3237L43.5983 102.238C46.6003 103.94 50.2752 103.94 53.2772 102.238L70.7692 92.3237L88.1013 82.1324C91.0759 80.3834 92.9134 77.2008 92.9408 73.7502L93.1006 53.6445L92.9408 33.5388C92.9134 30.0883 91.0759 26.9056 88.1013 25.1566L70.7692 14.9653L53.2772 5.05089Z" fill="#ECAD14"/>
<path d="M26.6899 52.5112H23.6638C21.9249 52.5112 20.5153 53.934 20.5153 55.6891V55.6924C20.5153 57.4475 21.9249 58.8702 23.6638 58.8702H26.6899C28.4288 58.8702 29.8384 57.4475 29.8384 55.6924V55.6891C29.8384 53.934 28.4288 52.5112 26.6899 52.5112Z" fill="#ECAD14"/>
<path d="M35.5276 32.9727H31.5775C29.9898 32.9727 28.7026 34.2719 28.7026 35.8744V35.8777C28.7026 37.4802 29.9898 38.7794 31.5775 38.7794H35.5276C37.1154 38.7794 38.4025 37.4802 38.4025 35.8777V35.8744C38.4025 34.2719 37.1154 32.9727 35.5276 32.9727Z" fill="#ECAD14"/>
<path d="M47.9383 73.281C47.9383 73.281 51.296 80.1047 65.5319 81.3329C65.5319 81.3329 60.3198 72.8618 60.1428 60.0399C60.1428 60.0399 53.6687 64.0626 47.9351 73.281H47.9383Z" fill="#D38200"/>
<path d="M59.0068 49.8699C62.3423 49.8699 65.0464 47.1659 65.0464 43.8303C65.0464 40.4947 62.3423 37.7907 59.0068 37.7907C55.6712 37.7907 52.9672 40.4947 52.9672 43.8303C52.9672 47.1659 55.6712 49.8699 59.0068 49.8699Z" fill="#ECAD14"/>
<path fill-rule="evenodd" clip-rule="evenodd" d="M71.8513 53.6064C55.7064 58.0613 47.5164 72.7712 47.5164 72.7712V72.7647C46.5506 71.2375 46.2158 69.2034 46.2158 69.2034H35.4664C33.7505 69.2034 32.3598 67.7997 32.3598 66.0677C32.3598 64.3358 33.7505 62.9321 35.4664 62.9321H47.3071C48.421 62.9321 49.3225 62.0223 49.3225 60.898C49.3225 59.7737 48.421 58.8639 47.3071 58.8639H34.0789C32.3405 58.8639 30.9304 57.4407 30.9304 55.686C30.9304 53.9314 32.3405 52.5081 34.0789 52.5081H43.1059C44.1715 52.5081 45.0375 51.6341 45.0375 50.5585C45.0375 49.483 44.1715 48.6089 43.1059 48.6089H14.9722C13.4398 48.6089 12.2003 47.3547 12.2003 45.8112C12.2003 44.2645 13.443 43.0135 14.9722 43.0135H46.924C48.1055 43.0135 49.0649 42.0452 49.0649 40.8527C49.0649 39.6602 48.1055 38.6918 46.924 38.6918H43.5856C42.021 38.6918 40.7526 37.4116 40.7526 35.8324C40.7526 34.2532 42.021 32.973 43.5856 32.973H50.4106C53.469 30.7439 58.475 28.5733 61.4111 27.3938C62.6859 26.8837 64.1282 27.5465 64.5757 28.856L72.5821 52.2092C72.785 52.8006 72.4501 53.4407 71.8513 53.6064ZM59.0073 51.38C63.1767 51.38 66.5568 48 66.5568 43.8305C66.5568 39.661 63.1767 36.281 59.0073 36.281C54.8378 36.281 51.4578 39.661 51.4578 43.8305C51.4578 48 54.8378 51.38 59.0073 51.38Z" fill="#ECAD14"/>
<path d="M11.3631 116.756C12.5857 116.756 13.7364 116.993 14.8151 117.469C15.8939 117.92 16.8408 118.55 17.6559 119.358C18.471 120.143 19.1063 121.07 19.5617 122.14C20.0412 123.209 20.2809 124.35 20.2809 125.563C20.2809 126.775 20.0412 127.916 19.5617 128.986C19.1063 130.055 18.471 130.982 17.6559 131.767C16.8408 132.551 15.8939 133.181 14.8151 133.656C13.7364 134.108 12.5857 134.334 11.3631 134.334H8.55826L5.82537 129.342H11.3631C11.8905 129.342 12.3819 129.247 12.8374 129.057C13.3169 128.843 13.7244 128.558 14.06 128.201C14.3956 127.821 14.6593 127.381 14.8511 126.882C15.0669 126.359 15.1747 125.788 15.1747 125.17C15.1747 124.647 15.0669 124.148 14.8511 123.673C14.6593 123.174 14.3956 122.734 14.06 122.354C13.7244 121.973 13.3169 121.664 12.8374 121.426C12.3819 121.189 11.8905 121.07 11.3631 121.07H4.99831V141.715H0V116.756H11.3631Z" fill="#ECAD14"/>
<path d="M41.9291 123.887V141.715H37.2185V132.801C37.2185 132.111 37.0867 131.47 36.823 130.875C36.5592 130.281 36.1877 129.758 35.7082 129.306C35.2527 128.855 34.7134 128.51 34.0901 128.272C33.4907 128.011 32.8555 127.88 32.1842 127.88C31.489 127.88 30.8418 128.011 30.2424 128.272C29.6431 128.534 29.1037 128.89 28.6243 129.342C28.1688 129.77 27.8092 130.293 27.5455 130.911C27.2818 131.505 27.15 132.147 27.15 132.836C27.15 133.502 27.2818 134.132 27.5455 134.726C27.8092 135.32 28.1688 135.843 28.6243 136.295C29.1037 136.747 29.6431 137.103 30.2424 137.365C30.8418 137.626 31.489 137.757 32.1842 137.757C32.9274 137.757 33.5627 137.626 34.0901 137.365H34.126V137.436L35.924 140.609L35.888 140.645C34.7134 141.548 33.263 142 31.537 142C30.2664 142 29.0678 141.762 27.9411 141.287C26.8143 140.811 25.8315 140.158 24.9924 139.326C24.1534 138.494 23.4821 137.519 22.9787 136.402C22.4992 135.285 22.2595 134.096 22.2595 132.836C22.2595 131.553 22.4992 130.352 22.9787 129.235C23.4821 128.118 24.1534 127.143 24.9924 126.311C25.8315 125.479 26.8143 124.826 27.9411 124.35C29.0678 123.851 30.2664 123.601 31.537 123.601C32.7835 123.601 33.8743 123.839 34.8092 124.315C35.7442 124.766 36.5473 125.432 37.2185 126.311V123.887H41.9291Z" fill="#ECAD14"/>
<path d="M44.1019 141.715L48.9204 135.225L53.3074 137.222L49.9632 141.715H44.1019ZM56.5437 132.872L63.1602 141.715H57.2629V141.679L50.7183 132.908L44.1378 123.887H49.9632L53.5951 129.948L57.2629 123.887H63.1602L63.0883 123.922L56.5437 132.872Z" fill="#ECAD14"/>
<path d="M71.3765 123.601C72.6711 123.601 73.8817 123.851 75.0084 124.35C76.1351 124.826 77.118 125.479 77.9571 126.311C78.7961 127.143 79.4554 128.118 79.9348 129.235C80.4382 130.352 80.69 131.541 80.69 132.801C80.69 134.061 80.4382 135.249 79.9348 136.366C79.4554 137.484 78.7961 138.458 77.9571 139.29C77.118 140.122 76.1351 140.788 75.0084 141.287C73.8817 141.762 72.6711 142 71.3765 142C70.082 142 68.8714 141.762 67.7447 141.287C66.618 140.788 65.6351 140.122 64.796 139.29C63.957 138.458 63.2858 137.484 62.7823 136.366C62.3029 135.249 62.0631 134.061 62.0631 132.801C62.0631 131.541 62.3029 130.352 62.7823 129.235C63.2858 128.118 63.957 127.143 64.796 126.311C65.6351 125.479 66.618 124.826 67.7447 124.35C68.8714 123.851 70.082 123.601 71.3765 123.601ZM71.3765 137.757C71.9759 137.757 72.5272 137.626 73.0307 137.365C73.5581 137.103 74.0135 136.747 74.3971 136.295C74.8046 135.82 75.1163 135.285 75.332 134.691C75.5718 134.072 75.6916 133.407 75.6916 132.694C75.6916 132.028 75.5718 131.398 75.332 130.804C75.1163 130.186 74.8046 129.663 74.3971 129.235C74.0135 128.784 73.5581 128.427 73.0307 128.165C72.5272 127.904 71.9759 127.773 71.3765 127.773C70.7772 127.773 70.2139 127.904 69.6865 128.165C69.1591 128.427 68.6916 128.784 68.2841 129.235C67.9005 129.663 67.5889 130.186 67.3491 130.804C67.1334 131.398 67.0255 132.028 67.0255 132.694C67.0255 133.407 67.1334 134.072 67.3491 134.691C67.5889 135.285 67.9005 135.82 68.2841 136.295C68.6916 136.747 69.1591 137.103 69.6865 137.365C70.2139 137.626 70.7772 137.757 71.3765 137.757Z" fill="#ECAD14"/>
<path d="M90.6262 131.125C91.4173 131.386 92.1365 131.66 92.7837 131.945C93.455 132.206 94.0303 132.527 94.5098 132.908C95.0132 133.288 95.3968 133.752 95.6605 134.298C95.9481 134.821 96.092 135.451 96.092 136.188V136.224C96.092 138.03 95.4807 139.445 94.258 140.467C93.0594 141.489 91.3693 142 89.1878 142C87.8214 142 86.4789 141.774 85.1604 141.323C83.8419 140.847 82.6073 140.182 81.4566 139.326L81.4207 139.29L81.4566 139.254L83.9018 135.439L83.9378 135.475C84.657 136.236 85.472 136.818 86.383 137.222C87.294 137.602 88.2649 137.793 89.2957 137.793C90.7101 137.793 91.4173 137.341 91.4173 136.438C91.4173 136.01 91.1895 135.689 90.7341 135.475C90.2786 135.261 89.7392 135.059 89.1159 134.869C88.996 134.821 88.8762 134.797 88.7563 134.797C88.6604 134.774 88.5525 134.738 88.4327 134.691C87.7135 134.5 86.9943 134.298 86.2751 134.084C85.5559 133.847 84.9087 133.538 84.3333 133.157C83.758 132.753 83.2785 132.254 82.895 131.66C82.5354 131.042 82.3556 130.257 82.3556 129.306V129.235C82.3556 128.403 82.5114 127.643 82.8231 126.953C83.1347 126.264 83.5782 125.67 84.1535 125.17C84.7289 124.671 85.4241 124.291 86.2392 124.029C87.0542 123.744 87.9532 123.601 88.9361 123.601C90.0868 123.601 91.2495 123.78 92.4241 124.136C93.5988 124.469 94.6896 124.968 95.6964 125.634V125.705L93.5029 129.663L93.4669 129.627C92.9156 129.081 92.2324 128.653 91.4173 128.344C90.6022 128.011 89.7392 127.845 88.8282 127.845C88.6604 127.845 88.4686 127.856 88.2529 127.88C88.0371 127.904 87.8334 127.963 87.6416 128.058C87.4738 128.154 87.3299 128.284 87.2101 128.451C87.0902 128.593 87.0303 128.807 87.0303 129.093C87.0303 129.306 87.1262 129.509 87.3179 129.699C87.5097 129.865 87.7495 130.031 88.0371 130.198C88.3488 130.34 88.6844 130.483 89.044 130.626C89.4275 130.768 89.7991 130.899 90.1587 131.018C90.2306 131.018 90.3026 131.03 90.3745 131.054C90.4704 131.077 90.5543 131.101 90.6262 131.125Z" fill="#ECAD14"/>
</svg>
