<svg width="24" height="25" viewBox="0 0 24 25" fill="none" xmlns="http://www.w3.org/2000/svg">
<path fill-rule="evenodd" clip-rule="evenodd" d="M6.71958 6.00549V4.42149C6.71958 3.72137 6.99733 3.04975 7.49259 2.55554C7.98786 2.06028 8.65945 1.78149 9.35958 1.78149H14.6396C15.3397 1.78149 16.0103 2.06028 16.5055 2.55554C17.0008 3.04975 17.2796 3.72137 17.2796 4.42149V6.00549H19.9196C20.6197 6.00549 21.2903 6.28428 21.7855 6.77954C22.2808 7.27375 22.5596 7.94537 22.5596 8.64549V20.2615C22.5596 20.9616 22.2808 21.6332 21.7855 22.1285C21.2903 22.6238 20.6197 22.9015 19.9196 22.9015C16.3397 22.9015 7.65942 22.9015 4.07958 22.9015C3.37945 22.9015 2.70786 22.6238 2.21259 22.1285C1.71733 21.6332 1.43958 20.9616 1.43958 20.2615V8.64549C1.43958 7.94537 1.71733 7.27375 2.21259 6.77954C2.70786 6.28428 3.37945 6.00549 4.07958 6.00549H6.71958ZM3.55158 12.7512V20.2615C3.55158 20.4019 3.60648 20.5361 3.70575 20.6353C3.80501 20.7346 3.93913 20.7895 4.07958 20.7895H19.9196C20.059 20.7895 20.1931 20.7346 20.2923 20.6353C20.3916 20.5361 20.4476 20.4019 20.4476 20.2615V12.8251L12.3248 15.4588C12.1105 15.5274 11.8792 15.5274 11.6648 15.4556L3.55158 12.7512ZM20.4476 10.6044V8.64549C20.4476 8.5061 20.3916 8.37199 20.2923 8.27273C20.1931 8.17346 20.059 8.11749 19.9196 8.11749C16.3397 8.11749 7.65942 8.11749 4.07958 8.11749C3.93913 8.11749 3.80501 8.17346 3.70575 8.27273C3.60648 8.37199 3.55158 8.5061 3.55158 8.64549V10.5252L12.0038 13.3426L20.4476 10.6044ZM15.1676 6.00549V4.42149C15.1676 4.2821 15.1116 4.14799 15.0123 4.04873C14.9131 3.94946 14.779 3.89349 14.6396 3.89349C13.1295 3.89349 10.8686 3.89349 9.35958 3.89349C9.21913 3.89349 9.08501 3.94946 8.98575 4.04873C8.88648 4.14799 8.83158 4.2821 8.83158 4.42149V6.00549H15.1676Z" fill="white"/>
</svg>
