<svg width="24" height="25" viewBox="0 0 24 25" fill="none" xmlns="http://www.w3.org/2000/svg">
<path d="M2.99976 22.3414H20.9998C21.265 22.3414 21.5193 22.236 21.7069 22.0485C21.8944 21.861 21.9998 21.6066 21.9998 21.3414C21.9998 21.0762 21.8944 20.8218 21.7069 20.6343C21.5193 20.4467 21.265 20.3414 20.9998 20.3414H12.9998V18.3414H19.9998C20.265 18.3414 20.5193 18.236 20.7069 18.0485C20.8944 17.861 20.9998 17.6066 20.9998 17.3414V4.34139C20.9998 4.07617 20.8944 3.82182 20.7069 3.63428C20.5193 3.44674 20.265 3.34139 19.9998 3.34139H13.9998C13.8681 3.34063 13.7377 3.36585 13.6158 3.41562C13.494 3.46538 13.3832 3.5387 13.2898 3.63139L11.5898 5.34139H3.99976C3.73454 5.34139 3.48019 5.44674 3.29265 5.63428C3.10511 5.82182 2.99976 6.07617 2.99976 6.34139V17.3414C2.99976 17.6066 3.10511 17.861 3.29265 18.0485C3.48019 18.236 3.73454 18.3414 3.99976 18.3414H10.9998V20.3414H2.99976C2.73454 20.3414 2.48019 20.4467 2.29265 20.6343C2.10511 20.8218 1.99976 21.0762 1.99976 21.3414C1.99976 21.6066 2.10511 21.861 2.29265 22.0485C2.48019 22.236 2.73454 22.3414 2.99976 22.3414V22.3414ZM4.99976 16.3414V7.34139H11.9998C12.1314 7.34215 12.2618 7.31692 12.3837 7.26716C12.5055 7.21739 12.6163 7.14407 12.7098 7.05139L14.4098 5.34139H18.9998V16.3414H4.99976Z" fill="#303C6C"/>
</svg>
