<svg width="24" height="25" viewBox="0 0 24 25" fill="none" xmlns="http://www.w3.org/2000/svg">
<path d="M4 11.3414H10C10.2652 11.3414 10.5196 11.2361 10.7071 11.0485C10.8946 10.861 11 10.6066 11 10.3414V4.34143C11 4.07621 10.8946 3.82186 10.7071 3.63432C10.5196 3.44679 10.2652 3.34143 10 3.34143H4C3.73478 3.34143 3.48043 3.44679 3.29289 3.63432C3.10536 3.82186 3 4.07621 3 4.34143V10.3414C3 10.6066 3.10536 10.861 3.29289 11.0485C3.48043 11.2361 3.73478 11.3414 4 11.3414ZM5 5.34143H9V9.34143H5V5.34143Z" fill="#303C6C"/>
<path d="M14 11.3414H20C20.2652 11.3414 20.5196 11.2361 20.7071 11.0485C20.8946 10.861 21 10.6066 21 10.3414V4.34143C21 4.07621 20.8946 3.82186 20.7071 3.63432C20.5196 3.44679 20.2652 3.34143 20 3.34143H14C13.7348 3.34143 13.4804 3.44679 13.2929 3.63432C13.1054 3.82186 13 4.07621 13 4.34143V10.3414C13 10.6066 13.1054 10.861 13.2929 11.0485C13.4804 11.2361 13.7348 11.3414 14 11.3414ZM15 5.34143H19V9.34143H15V5.34143Z" fill="#303C6C"/>
<path d="M4 21.3414H10C10.2652 21.3414 10.5196 21.2361 10.7071 21.0485C10.8946 20.861 11 20.6066 11 20.3414V14.3414C11 14.0762 10.8946 13.8219 10.7071 13.6343C10.5196 13.4468 10.2652 13.3414 10 13.3414H4C3.73478 13.3414 3.48043 13.4468 3.29289 13.6343C3.10536 13.8219 3 14.0762 3 14.3414V20.3414C3 20.6066 3.10536 20.861 3.29289 21.0485C3.48043 21.2361 3.73478 21.3414 4 21.3414ZM5 15.3414H9V19.3414H5V15.3414Z" fill="#303C6C"/>
<path d="M14 21.3414H20C20.2652 21.3414 20.5196 21.2361 20.7071 21.0485C20.8946 20.861 21 20.6066 21 20.3414V14.3414C21 14.0762 20.8946 13.8219 20.7071 13.6343C20.5196 13.4468 20.2652 13.3414 20 13.3414H14C13.7348 13.3414 13.4804 13.4468 13.2929 13.6343C13.1054 13.8219 13 14.0762 13 14.3414V20.3414C13 20.6066 13.1054 20.861 13.2929 21.0485C13.4804 21.2361 13.7348 21.3414 14 21.3414ZM15 15.3414H19V19.3414H15V15.3414Z" fill="#303C6C"/>
</svg>
