<svg width="16" height="16" viewBox="0 0 16 16" fill="none" xmlns="http://www.w3.org/2000/svg">
<path d="M5.64937 12.4187C5.64937 12.4812 5.5775 12.5312 5.48687 12.5312C5.38375 12.5406 5.31187 12.4906 5.31187 12.4187C5.31187 12.3562 5.38375 12.3062 5.47437 12.3062C5.56812 12.2969 5.64937 12.3469 5.64937 12.4187ZM4.6775 12.2781C4.65562 12.3406 4.71812 12.4125 4.81187 12.4312C4.89312 12.4625 4.98687 12.4312 5.00562 12.3687C5.02437 12.3062 4.965 12.2344 4.87125 12.2063C4.79 12.1844 4.69937 12.2156 4.6775 12.2781ZM6.05875 12.225C5.96812 12.2469 5.90562 12.3063 5.915 12.3781C5.92437 12.4406 6.00562 12.4813 6.09937 12.4594C6.19 12.4375 6.2525 12.3781 6.24312 12.3156C6.23375 12.2563 6.14937 12.2156 6.05875 12.225ZM8.115 0.25C3.78062 0.25 0.464996 3.54063 0.464996 7.875C0.464996 11.3406 2.64625 14.3063 5.76187 15.35C6.16187 15.4219 6.3025 15.175 6.3025 14.9719C6.3025 14.7781 6.29312 13.7094 6.29312 13.0531C6.29312 13.0531 4.10562 13.5219 3.64625 12.1219C3.64625 12.1219 3.29 11.2125 2.7775 10.9781C2.7775 10.9781 2.06187 10.4875 2.8275 10.4969C2.8275 10.4969 3.60562 10.5594 4.03375 11.3031C4.71812 12.5094 5.865 12.1625 6.31187 11.9563C6.38375 11.4563 6.58687 11.1094 6.81187 10.9031C5.065 10.7094 3.3025 10.4562 3.3025 7.45C3.3025 6.59062 3.54 6.15938 4.04 5.60938C3.95875 5.40625 3.69312 4.56875 4.12125 3.4875C4.77437 3.28437 6.2775 4.33125 6.2775 4.33125C6.9025 4.15625 7.57437 4.06563 8.24 4.06563C8.90562 4.06563 9.5775 4.15625 10.2025 4.33125C10.2025 4.33125 11.7056 3.28125 12.3587 3.4875C12.7869 4.57187 12.5212 5.40625 12.44 5.60938C12.94 6.1625 13.2462 6.59375 13.2462 7.45C13.2462 10.4656 11.4056 10.7062 9.65875 10.9031C9.94625 11.15 10.19 11.6187 10.19 12.3531C10.19 13.4062 10.1806 14.7094 10.1806 14.9656C10.1806 15.1687 10.3244 15.4156 10.7212 15.3438C13.8462 14.3062 15.965 11.3406 15.965 7.875C15.965 3.54063 12.4494 0.25 8.115 0.25ZM3.5025 11.0281C3.46187 11.0594 3.47125 11.1313 3.52437 11.1906C3.57437 11.2406 3.64625 11.2625 3.68687 11.2219C3.7275 11.1906 3.71812 11.1187 3.665 11.0594C3.615 11.0094 3.54312 10.9875 3.5025 11.0281ZM3.165 10.775C3.14312 10.8156 3.17437 10.8656 3.23687 10.8969C3.28687 10.9281 3.34937 10.9187 3.37125 10.875C3.39312 10.8344 3.36187 10.7844 3.29937 10.7531C3.23687 10.7344 3.18687 10.7437 3.165 10.775ZM4.1775 11.8875C4.1275 11.9281 4.14625 12.0219 4.21812 12.0813C4.29 12.1531 4.38062 12.1625 4.42125 12.1125C4.46187 12.0719 4.44312 11.9781 4.38062 11.9187C4.31187 11.8469 4.21812 11.8375 4.1775 11.8875ZM3.82125 11.4281C3.77125 11.4594 3.77125 11.5406 3.82125 11.6125C3.87125 11.6844 3.95562 11.7156 3.99625 11.6844C4.04625 11.6437 4.04625 11.5625 3.99625 11.4906C3.9525 11.4188 3.87125 11.3875 3.82125 11.4281Z" fill="white"/>
</svg>
