<svg width="54" height="36" viewBox="0 0 54 36" fill="none" xmlns="http://www.w3.org/2000/svg">
<path fill-rule="evenodd" clip-rule="evenodd" d="M50.9522 15.0041C51.4592 12.9688 50.9522 12.0337 49.3678 11.4836C45.3752 10.0809 35.024 12.7488 30.5349 13.4501C28.0738 13.8352 20.8385 15.1829 19.064 13.6977C17.205 12.1299 19.4654 9.57203 20.4688 8.52687C21.6413 7.31668 25.8874 3.85114 27.3133 1.95334C25.2959 2.47592 21.5568 5.29511 20.3315 6.40904C18.5676 8.03179 14.839 11.8686 17.0783 14.9629C19.7928 18.7035 28.8555 19.9549 32.8692 20.4225C28.4858 20.3125 19.4443 19.8999 16.2544 16.0631C12.9166 12.0612 16.9515 7.19291 19.4971 4.86879C20.8808 3.6036 27.2394 -1.38844 28.866 0.371837C30.3659 1.99459 26.5106 5.35012 25.7078 6.10649C24.6938 7.06914 20.1942 10.7135 19.8456 12.1024C21.3033 13.2989 30.4715 11.4973 32.6368 11.236C36.5767 10.741 45.935 9.58578 49.4418 11.1673C51.0367 11.8824 51.5965 12.9413 50.9522 15.0179V15.0041Z" fill="url(#paint0_linear_8_1387)"/>
<path fill-rule="evenodd" clip-rule="evenodd" d="M1.43518 21.6466C0.970429 23.6956 1.51968 24.617 3.10406 25.0983C7.12837 26.336 17.4057 23.2418 21.8736 22.3479C24.3241 21.8666 31.5172 20.2163 33.3234 21.6328C35.2246 23.118 33.0276 25.786 32.0453 26.8586C30.9046 28.1238 26.7429 31.7544 25.3593 33.7072C27.3556 33.1021 31.0313 30.1316 32.2355 28.9627C33.9571 27.2712 37.5906 23.2693 35.288 20.2851C32.489 16.6545 23.4052 15.7744 19.3703 15.4718C23.7115 15.4031 33.598 15.3893 36.5238 19.7075C39.1645 23.6131 35.4148 28.2338 33.1121 30.4754C31.7601 31.7957 25.5283 37.049 23.8594 35.3575C22.3173 33.7897 26.0986 30.2829 26.8697 29.499C27.8626 28.5089 32.2671 24.672 32.5735 23.2693C31.0841 22.1416 21.9687 24.3007 19.8139 24.672C15.8847 25.3184 6.56856 26.8724 3.01956 25.4284C1.40349 24.7683 0.822553 23.7369 1.41405 21.6328L1.43518 21.6466Z" fill="url(#paint1_linear_8_1387)"/>
<path d="M2.59 32.1103C2.18867 32.1103 1.813 32.066 1.463 31.9773C1.11767 31.8887 0.872667 31.8 0.728 31.7113C0.588 31.6227 0.494667 31.5597 0.448 31.5223C0.326667 31.4243 0.266 31.289 0.266 31.1163C0.266 30.981 0.282333 30.8527 0.315 30.7313C0.375667 30.5027 0.485333 30.3883 0.644 30.3883C0.695333 30.393 0.858667 30.4467 1.134 30.5493C1.414 30.652 1.63333 30.7033 1.792 30.7033C2.03 30.7033 2.149 30.61 2.149 30.4233C2.149 30.3113 2.09067 30.2087 1.974 30.1153C1.85733 30.0173 1.715 29.924 1.547 29.8353C1.38367 29.7467 1.218 29.6463 1.05 29.5343C0.882 29.4177 0.739667 29.259 0.623 29.0583C0.506333 28.853 0.448 28.615 0.448 28.3443C0.448 27.8963 0.667333 27.5463 1.106 27.2943C1.54467 27.0377 2.11167 26.9093 2.807 26.9093C3.50233 26.9093 4.053 26.9817 4.459 27.1263C4.86967 27.2663 5.075 27.4623 5.075 27.7143C5.075 27.8963 5.033 28.0573 4.949 28.1973C4.865 28.3327 4.77633 28.4003 4.683 28.4003C4.65033 28.4003 4.54067 28.3653 4.354 28.2953C4.172 28.2207 4.00633 28.1833 3.857 28.1833C3.563 28.1833 3.416 28.2977 3.416 28.5263C3.416 28.6383 3.486 28.741 3.626 28.8343C3.766 28.9277 3.934 29.0187 4.13 29.1073C4.33067 29.1913 4.53133 29.287 4.732 29.3943C4.93267 29.5017 5.103 29.6487 5.243 29.8353C5.383 30.022 5.453 30.2483 5.453 30.5143C5.453 30.7803 5.36667 31.023 5.194 31.2423C5.026 31.4617 4.802 31.632 4.522 31.7533C3.96667 31.9913 3.32267 32.1103 2.59 32.1103ZM9.46116 32.1103C8.89649 32.1103 8.38549 32.038 7.92816 31.8933C7.47082 31.744 7.09982 31.5457 6.81516 31.2983C6.53049 31.051 6.31349 30.7757 6.16416 30.4723C6.01482 30.1643 5.94016 29.8447 5.94016 29.5133C5.94016 29.182 6.01482 28.8647 6.16416 28.5613C6.31816 28.2533 6.53516 27.9757 6.81516 27.7283C7.09982 27.481 7.47082 27.2827 7.92816 27.1333C8.38549 26.984 8.88716 26.9093 9.43316 26.9093C9.97916 26.9093 10.4622 26.977 10.8822 27.1123C11.3022 27.2477 11.6405 27.432 11.8972 27.6653C12.4198 28.1413 12.6812 28.706 12.6812 29.3593C12.6812 29.6907 12.6088 30.015 12.4642 30.3323C12.3242 30.6497 12.1212 30.939 11.8552 31.2003C11.5938 31.457 11.2555 31.6693 10.8402 31.8373C10.4248 32.0007 9.96516 32.0917 9.46116 32.1103ZM10.8472 29.3943C10.8472 29.1703 10.7678 28.9767 10.6092 28.8133C10.4505 28.6453 10.2078 28.5613 9.88116 28.5613C9.55916 28.5613 9.30249 28.6477 9.11116 28.8203C8.91982 28.993 8.82416 29.203 8.82416 29.4503C8.82416 29.6977 8.92449 29.896 9.12516 30.0453C9.32582 30.1947 9.56616 30.2693 9.84616 30.2693C10.1308 30.2693 10.3688 30.1783 10.5602 29.9963C10.7515 29.8143 10.8472 29.6137 10.8472 29.3943ZM16.2999 28.7573L16.2929 30.1573C16.2929 30.3627 16.3233 30.5167 16.3839 30.6193C16.4493 30.7173 16.5823 30.7663 16.7829 30.7663H18.5539C18.7686 30.771 18.8759 30.9343 18.8759 31.2563C18.8759 31.5037 18.8456 31.6833 18.7849 31.7953C18.7243 31.9073 18.6006 31.9657 18.4139 31.9703C17.7559 31.989 17.1049 31.9983 16.4609 31.9983C15.8169 31.9983 14.9956 31.9937 13.9969 31.9843C13.8289 31.9843 13.6913 31.9447 13.5839 31.8653C13.4813 31.7813 13.4229 31.667 13.4089 31.5223C13.3716 31.1163 13.3529 30.477 13.3529 29.6043C13.3529 28.727 13.3623 28.1367 13.3809 27.8333C13.4043 27.5253 13.4486 27.3223 13.5139 27.2243C13.5793 27.1217 13.7076 27.0703 13.8989 27.0703H15.7749C15.9709 27.0703 16.0993 27.1217 16.1599 27.2243C16.2253 27.327 16.2649 27.4927 16.2789 27.7213C16.2929 27.95 16.2999 28.2953 16.2999 28.7573ZM22.7707 32.1103C22.2061 32.1103 21.6951 32.038 21.2377 31.8933C20.7804 31.744 20.4094 31.5457 20.1247 31.2983C19.8401 31.051 19.6231 30.7757 19.4737 30.4723C19.3244 30.1643 19.2497 29.8447 19.2497 29.5133C19.2497 29.182 19.3244 28.8647 19.4737 28.5613C19.6277 28.2533 19.8447 27.9757 20.1247 27.7283C20.4094 27.481 20.7804 27.2827 21.2377 27.1333C21.6951 26.984 22.1967 26.9093 22.7427 26.9093C23.2887 26.9093 23.7717 26.977 24.1917 27.1123C24.6117 27.2477 24.9501 27.432 25.2067 27.6653C25.7294 28.1413 25.9907 28.706 25.9907 29.3593C25.9907 29.6907 25.9184 30.015 25.7737 30.3323C25.6337 30.6497 25.4307 30.939 25.1647 31.2003C24.9034 31.457 24.5651 31.6693 24.1497 31.8373C23.7344 32.0007 23.2747 32.0917 22.7707 32.1103ZM24.1567 29.3943C24.1567 29.1703 24.0774 28.9767 23.9187 28.8133C23.7601 28.6453 23.5174 28.5613 23.1907 28.5613C22.8687 28.5613 22.6121 28.6477 22.4207 28.8203C22.2294 28.993 22.1337 29.203 22.1337 29.4503C22.1337 29.6977 22.2341 29.896 22.4347 30.0453C22.6354 30.1947 22.8757 30.2693 23.1557 30.2693C23.4404 30.2693 23.6784 30.1783 23.8697 29.9963C24.0611 29.8143 24.1567 29.6137 24.1567 29.3943ZM29.6095 28.7573L29.6025 30.1573C29.6025 30.3627 29.6328 30.5167 29.6935 30.6193C29.7588 30.7173 29.8918 30.7663 30.0925 30.7663H31.8635C32.0782 30.771 32.1855 30.9343 32.1855 31.2563C32.1855 31.5037 32.1552 31.6833 32.0945 31.7953C32.0338 31.9073 31.9102 31.9657 31.7235 31.9703C31.0655 31.989 30.4145 31.9983 29.7705 31.9983C29.1265 31.9983 28.3052 31.9937 27.3065 31.9843C27.1385 31.9843 27.0008 31.9447 26.8935 31.8653C26.7908 31.7813 26.7325 31.667 26.7185 31.5223C26.6812 31.1163 26.6625 30.477 26.6625 29.6043C26.6625 28.727 26.6718 28.1367 26.6905 27.8333C26.7138 27.5253 26.7582 27.3223 26.8235 27.2243C26.8888 27.1217 27.0172 27.0703 27.2085 27.0703H29.0845C29.2805 27.0703 29.4088 27.1217 29.4695 27.2243C29.5348 27.327 29.5745 27.4927 29.5885 27.7213C29.6025 27.95 29.6095 28.2953 29.6095 28.7573ZM33.2173 31.9703C33.0866 31.9703 32.9746 31.9283 32.8813 31.8443C32.7926 31.7557 32.7343 31.6133 32.7063 31.4173C32.683 31.2167 32.6713 30.6217 32.6713 29.6323C32.6713 28.6383 32.6876 27.9897 32.7203 27.6863C32.7576 27.2943 32.9233 27.0937 33.2173 27.0843C33.5533 27.075 34.9463 27.0703 37.3963 27.0703C37.6716 27.0703 37.8093 27.2453 37.8093 27.5953C37.8093 27.8707 37.688 28.0083 37.4453 28.0083H35.9053C35.8073 28.0083 35.728 28.041 35.6673 28.1063C35.6113 28.1717 35.5833 28.2557 35.5833 28.3583V28.8623C35.5833 29.0023 35.6463 29.0723 35.7723 29.0723H37.0463C37.121 29.0723 37.177 29.0793 37.2143 29.0933C37.2563 29.1073 37.2936 29.1493 37.3263 29.2193C37.359 29.2847 37.3753 29.3943 37.3753 29.5483C37.3753 29.7023 37.3473 29.805 37.2913 29.8563C37.24 29.9077 37.1536 29.9333 37.0323 29.9333H35.8913C35.7746 29.9333 35.693 29.9637 35.6463 30.0243C35.6043 30.0803 35.5833 30.169 35.5833 30.2903V30.6333C35.5833 30.834 35.679 30.9343 35.8703 30.9343H37.6133C37.6973 30.9343 37.772 30.96 37.8373 31.0113C37.9026 31.058 37.9353 31.1653 37.9353 31.3333C37.9353 31.4967 37.8956 31.6437 37.8163 31.7743C37.737 31.905 37.6436 31.9703 37.5363 31.9703H33.2173ZM42.6025 28.2043C42.1825 28.2043 41.8862 28.314 41.7135 28.5333C41.5455 28.748 41.4615 29.091 41.4615 29.5623C41.4615 30.3043 41.6785 30.6753 42.1125 30.6753C42.2012 30.6753 42.2595 30.673 42.2875 30.6683C42.2315 30.6683 42.1849 30.5703 42.1475 30.3743C42.1149 30.1783 42.0985 29.973 42.0985 29.7583C42.0985 29.5437 42.1569 29.406 42.2735 29.3453C42.3902 29.28 42.5512 29.2473 42.7565 29.2473C42.9665 29.2473 43.1112 29.2497 43.1905 29.2543C43.2745 29.2543 43.3679 29.2637 43.4705 29.2823C43.5779 29.2963 43.6595 29.3197 43.7155 29.3523C43.8462 29.427 43.9115 29.539 43.9115 29.6883V30.7103C43.9115 31.0743 43.8462 31.366 43.7155 31.5853C43.5849 31.8 43.3399 31.926 42.9805 31.9633C42.4765 32.0147 41.7065 32.0403 40.6705 32.0403C40.2552 32.0403 39.8982 31.975 39.5995 31.8443C39.3055 31.7137 39.0769 31.5317 38.9135 31.2983C38.6149 30.8643 38.4655 30.3137 38.4655 29.6463C38.4655 28.9743 38.6802 28.377 39.1095 27.8543C39.5389 27.3317 40.1105 27.0517 40.8245 27.0143C41.3145 26.9863 41.6692 26.9723 41.8885 26.9723C42.6865 26.9723 43.2535 27.0213 43.5895 27.1193C43.8182 27.1847 43.9325 27.369 43.9325 27.6723C43.9325 28.0783 43.8135 28.2813 43.5755 28.2813C43.5009 28.2767 43.3515 28.2627 43.1275 28.2393C42.9035 28.216 42.7285 28.2043 42.6025 28.2043ZM45.3176 27.0703H47.1936C47.3896 27.0703 47.5179 27.1193 47.5786 27.2173C47.6439 27.3153 47.6859 27.5183 47.7046 27.8263C47.7279 28.1297 47.7396 28.7223 47.7396 29.6043C47.7396 30.4817 47.7209 31.1257 47.6836 31.5363C47.6696 31.6437 47.6206 31.7393 47.5366 31.8233C47.4572 31.9073 47.3499 31.954 47.2146 31.9633C46.9486 31.982 46.6406 31.9913 46.2906 31.9913C45.9406 31.9913 45.6092 31.982 45.2966 31.9633C45.1612 31.954 45.0516 31.9073 44.9676 31.8233C44.8882 31.7393 44.8416 31.6437 44.8276 31.5363C44.7902 31.1257 44.7716 30.4817 44.7716 29.6043C44.7716 28.7223 44.7809 28.1297 44.7996 27.8263C44.8229 27.5183 44.8649 27.3153 44.9256 27.2173C44.9909 27.1193 45.1216 27.0703 45.3176 27.0703ZM50.7492 32.1103C50.3478 32.1103 49.9722 32.066 49.6222 31.9773C49.2768 31.8887 49.0318 31.8 48.8872 31.7113C48.7472 31.6227 48.6538 31.5597 48.6072 31.5223C48.4858 31.4243 48.4252 31.289 48.4252 31.1163C48.4252 30.981 48.4415 30.8527 48.4742 30.7313C48.5348 30.5027 48.6445 30.3883 48.8032 30.3883C48.8545 30.393 49.0178 30.4467 49.2932 30.5493C49.5732 30.652 49.7925 30.7033 49.9512 30.7033C50.1892 30.7033 50.3082 30.61 50.3082 30.4233C50.3082 30.3113 50.2498 30.2087 50.1332 30.1153C50.0165 30.0173 49.8742 29.924 49.7062 29.8353C49.5428 29.7467 49.3772 29.6463 49.2092 29.5343C49.0412 29.4177 48.8988 29.259 48.7822 29.0583C48.6655 28.853 48.6072 28.615 48.6072 28.3443C48.6072 27.8963 48.8265 27.5463 49.2652 27.2943C49.7038 27.0377 50.2708 26.9093 50.9662 26.9093C51.6615 26.9093 52.2122 26.9817 52.6182 27.1263C53.0288 27.2663 53.2342 27.4623 53.2342 27.7143C53.2342 27.8963 53.1922 28.0573 53.1082 28.1973C53.0242 28.3327 52.9355 28.4003 52.8422 28.4003C52.8095 28.4003 52.6998 28.3653 52.5132 28.2953C52.3312 28.2207 52.1655 28.1833 52.0162 28.1833C51.7222 28.1833 51.5752 28.2977 51.5752 28.5263C51.5752 28.6383 51.6452 28.741 51.7852 28.8343C51.9252 28.9277 52.0932 29.0187 52.2892 29.1073C52.4898 29.1913 52.6905 29.287 52.8912 29.3943C53.0918 29.5017 53.2622 29.6487 53.4022 29.8353C53.5422 30.022 53.6122 30.2483 53.6122 30.5143C53.6122 30.7803 53.5258 31.023 53.3532 31.2423C53.1852 31.4617 52.9612 31.632 52.6812 31.7533C52.1258 31.9913 51.4818 32.1103 50.7492 32.1103Z" fill="#DB2777"/>
<defs>
<linearGradient id="paint0_linear_8_1387" x1="39.0588" y1="10.0809" x2="12.8519" y2="10.308" gradientUnits="userSpaceOnUse">
<stop offset="0.31" stop-color="#F96791"/>
<stop offset="1" stop-color="#BD1226"/>
</linearGradient>
<linearGradient id="paint1_linear_8_1387" x1="1.2028" y1="25.5934" x2="37.4322" y2="25.5934" gradientUnits="userSpaceOnUse">
<stop offset="0.31" stop-color="#F96791"/>
<stop offset="1" stop-color="#BD1226"/>
</linearGradient>
</defs>
</svg>
