<svg width="120" height="28" viewBox="0 0 120 28" fill="none" xmlns="http://www.w3.org/2000/svg">
<path fill-rule="evenodd" clip-rule="evenodd" d="M71.2596 7.20153C70.6931 7.45259 70.334 8.02057 70.35 8.64003V8.66003C70.3463 9.06694 70.5125 9.45696 70.8087 9.73603C71.1049 10.0151 71.5041 10.1579 71.91 10.13C72.5296 10.1177 73.0805 9.73284 73.3053 9.15539C73.5301 8.57794 73.3844 7.92192 72.9363 7.49392C72.4882 7.06592 71.8262 6.95047 71.2596 7.20153ZM37.78 7.89003H34.78V20.02H37.78V7.89003ZM43.65 10.65C40.81 10.65 38.97 12.44 38.97 15.44C38.97 18.49 40.77 20.24 43.65 20.24C46.53 20.24 48.33 18.44 48.33 15.44C48.33 12.44 46.49 10.65 43.65 10.65ZM45.32 15.44C45.32 13.79 44.67 12.82 43.65 12.82C42.63 12.82 41.99 13.82 41.99 15.44C41.99 17.06 42.62 18.04 43.65 18.04C44.68 18.04 45.32 17.12 45.32 15.45V15.44ZM52.34 20.61H49.46V20.62C49.63 22.28 51.28 23.47 53.93 23.47C56.78 23.47 58.71 22.11 58.71 19.92V10.82H55.71V12.49C55.2476 11.3848 54.1472 10.6831 52.95 10.73C50.65 10.73 49.27 12.54 49.27 15.41C49.27 18.28 50.72 19.95 52.91 19.95C54.0698 20.013 55.151 19.3635 55.64 18.31H55.7V19.99C55.7 20.89 55.1 21.51 53.96 21.51C53.2804 21.6014 52.6215 21.2354 52.34 20.61ZM55.71 15.43C55.71 13.97 55.04 13.05 53.98 13.05C52.92 13.05 52.27 13.96 52.27 15.43C52.27 16.9 52.91 17.73 53.98 17.73C55.05 17.73 55.71 16.92 55.71 15.44V15.43ZM64.52 10.64C61.68 10.64 59.84 12.43 59.84 15.43V15.44C59.84 18.49 61.63 20.23 64.52 20.23C67.41 20.23 69.21 18.43 69.21 15.43C69.21 12.43 67.36 10.64 64.52 10.64ZM66.19 15.43C66.19 13.78 65.54 12.81 64.52 12.81C63.5 12.81 62.91 13.82 62.91 15.45C62.91 17.08 63.54 18.05 64.56 18.05C65.58 18.05 66.19 17.12 66.19 15.45V15.43ZM70.35 10.84H73.35V20.02H70.35V10.84ZM80.63 20.14C82.91 20.14 84.24 18.43 84.24 15.43L84.28 15.45C84.28 12.45 82.91 10.73 80.61 10.69C79.4032 10.6362 78.2918 11.3438 77.83 12.46H77.77V10.82H74.77V22.96H77.77V18.44H77.83C78.3143 19.538 79.4325 20.2169 80.63 20.14ZM81.24 15.43C81.24 13.97 80.57 13.04 79.52 13.04C78.47 13.04 77.8 13.98 77.79 15.43C77.78 16.88 78.47 17.81 79.52 17.81C80.57 17.81 81.24 16.9 81.24 15.45V15.43ZM93.46 13.7C93.39 11.81 91.88 10.63 89.39 10.63V10.65C86.91 10.65 85.3 11.82 85.28 13.62C85.28 15.02 86.22 15.97 88.01 16.34L89.74 16.71C90.46 16.86 90.74 16.96 90.74 17.44C90.74 17.92 90.34 18.21 89.46 18.21C88.58 18.21 88.04 17.81 87.95 17.13H85.06C85.19 19 86.86 20.22 89.41 20.22C91.96 20.22 93.69 19 93.69 17.1C93.69 15.71 92.91 14.97 91.08 14.58L89.16 14.19C88.49 14.05 88.16 13.9 88.16 13.43C88.16 12.96 88.53 12.64 89.36 12.64C90.19 12.64 90.73 13.05 90.73 13.7H93.46ZM103.7 20H100.81V18.29H100.75C100.423 19.4729 99.3155 20.268 98.09 20.2C97.1678 20.2524 96.2682 19.9026 95.6237 19.2408C94.9792 18.5791 94.6533 17.6705 94.73 16.75V10.82H97.73V16.06C97.73 17.15 98.29 17.73 99.22 17.73C99.6612 17.7309 100.081 17.5413 100.373 17.2099C100.664 16.8785 100.798 16.4374 100.74 16V10.82H103.74L103.7 20ZM108.05 10.82H105.15L105.1 20.02H108.1V14.61C108.054 14.2296 108.174 13.8477 108.428 13.561C108.682 13.2743 109.047 13.1101 109.43 13.11C110.25 13.11 110.7 13.61 110.7 14.53V20.02H113.55V14.59C113.501 14.2142 113.617 13.8355 113.868 13.5517C114.119 13.2679 114.481 13.1068 114.86 13.11C115.7 13.11 116.15 13.57 116.15 14.57V20.02H119.15V13.77C119.21 12.9467 118.918 12.1365 118.345 11.5414C117.773 10.9464 116.975 10.6223 116.15 10.65C114.864 10.5948 113.703 11.4178 113.33 12.65H113.27C113.071 11.4209 111.961 10.5506 110.72 10.65C109.51 10.6277 108.437 11.4249 108.11 12.59H108.05V10.82Z" fill="#696871"/>
<path fill-rule="evenodd" clip-rule="evenodd" d="M24.3901 5.22003C25.2076 6.19196 25.8812 7.27639 26.3901 8.44003C27.1313 10.1366 27.5127 11.9685 27.5101 13.82C27.5046 21.2934 21.4534 27.3535 13.9801 27.37C12.2412 27.3691 10.5191 27.0294 8.91006 26.37C7.76241 25.914 6.68507 25.2979 5.71006 24.54C1.56305 21.3796 -0.398913 16.1174 0.666779 11.0135C1.73247 5.9095 5.63616 1.87207 10.7013 0.635107C15.7665 -0.601855 21.0918 1.18179 24.3901 5.22003ZM18.4901 4.01003C17.0743 3.35117 15.5316 3.00986 13.9701 3.01003L13.9801 2.99003C10.2771 2.98727 6.83089 4.88181 4.84903 8.00977C2.86717 11.1377 2.62602 15.063 4.21006 18.41C4.66176 17.9355 4.9401 17.3224 5.00006 16.67C5.36377 14.1574 7.33748 12.1837 9.85006 11.82C11.2677 11.6915 12.3998 10.5844 12.5601 9.17003C12.9238 6.65744 14.8975 4.68374 17.4101 4.32003C17.7819 4.26338 18.1448 4.1592 18.4901 4.01003ZM5.70006 20.82C5.74007 20.7834 5.78007 20.7478 5.82007 20.7122L5.82014 20.7122C5.90011 20.6411 5.98009 20.57 6.06006 20.49C6.94972 19.6275 7.52078 18.4889 7.68006 17.26C7.74465 16.5693 8.05306 15.9241 8.55006 15.44C9.02831 14.9422 9.67203 14.6363 10.3601 14.58C12.8726 14.2163 14.8464 12.2426 15.2101 9.73003C15.2533 9.00754 15.5634 8.32687 16.0801 7.82003C16.5701 7.33188 17.22 7.03713 17.9101 6.99003C19.034 6.83539 20.0822 6.33574 20.9101 5.56003C21.8527 6.3421 22.6514 7.28292 23.2701 8.34003C23.2321 8.39138 23.1885 8.43833 23.1401 8.48003C22.6627 8.98222 22.0198 9.29479 21.3301 9.36003C18.8143 9.71747 16.8375 11.6943 16.4801 14.21C16.3348 15.6294 15.2099 16.75 13.7901 16.89C11.2705 17.2509 9.28647 19.2227 8.91006 21.74C8.85624 22.2288 8.68841 22.698 8.42006 23.11C7.39406 22.5009 6.47515 21.7272 5.70006 20.82ZM10.9701 24.26C11.9455 24.5398 12.9553 24.6811 13.9701 24.68V24.63C17.3191 24.617 20.4734 23.0538 22.5122 20.3968C24.551 17.7397 25.2444 14.2883 24.3901 11.05C23.6309 11.5868 22.7521 11.9301 21.8301 12.05C20.4141 12.1945 19.2945 13.3141 19.1501 14.73C18.7852 17.2458 16.8065 19.2204 14.2901 19.58C12.8741 19.7245 11.7545 20.8441 11.6101 22.26C11.5206 22.9602 11.3037 23.638 10.9701 24.26Z" fill="#696871"/>
</svg>
