<svg width="128" height="30" viewBox="0 0 128 30" fill="none" xmlns="http://www.w3.org/2000/svg">
<path fill-rule="evenodd" clip-rule="evenodd" d="M76.093 8.33586C75.483 8.6119 75.102 9.23105 75.1306 9.9L75.1506 9.91C75.1558 10.3326 75.3301 10.7355 75.6345 11.0286C75.939 11.3218 76.3481 11.4807 76.7706 11.47C77.4402 11.4694 78.0421 11.0618 78.2913 10.4404C78.5405 9.81889 78.3869 9.10835 77.9032 8.64534C77.4196 8.18232 76.703 8.05982 76.093 8.33586ZM40.1006 9.08H36.8906V22.08H40.1006V9.08ZM46.3806 12.04C43.3806 12.04 41.3806 13.97 41.3806 17.19C41.3806 20.48 43.3106 22.36 46.3806 22.36C49.4506 22.36 51.3806 20.41 51.3806 17.19C51.3806 13.97 49.3806 12.04 46.3806 12.04ZM48.2006 17.19C48.2006 15.42 47.5106 14.38 46.4106 14.38C45.3106 14.38 44.6306 15.38 44.6306 17.19C44.6306 19 45.3106 19.99 46.4106 19.99C47.5106 19.99 48.2206 19 48.2206 17.2L48.2006 17.19ZM55.7606 22.75H52.6606L52.6806 22.76C52.8606 24.55 54.6406 25.82 57.4206 25.83C60.4806 25.83 62.5606 24.36 62.5606 22.01V12.27H59.3806V13.8828C58.8377 12.7958 57.6975 12.1244 56.4706 12.19C53.9606 12.19 52.4706 14.11 52.4706 17.19C52.4706 20.27 54.0306 22.06 56.3806 22.06C57.6385 22.1522 58.8239 21.4657 59.3706 20.331V22.11C59.3706 23.09 58.7306 23.75 57.5006 23.75C56.762 23.8447 56.0507 23.4359 55.7606 22.75ZM59.3806 17.19C59.3806 15.62 58.6606 14.63 57.5206 14.63C56.3806 14.63 55.6806 15.63 55.6806 17.19C55.6806 18.75 56.3706 19.67 57.5206 19.67C58.6706 19.67 59.3806 18.82 59.3806 17.19ZM68.8306 12.04C65.8306 12.04 63.8306 13.97 63.8306 17.19H63.8506C63.8506 20.48 65.7706 22.36 68.8306 22.36C71.8906 22.36 73.8306 20.41 73.8306 17.19C73.8306 13.97 71.8306 12.04 68.8306 12.04ZM70.6506 17.19C70.6506 15.42 69.9506 14.38 68.8606 14.38C67.7706 14.38 67.0806 15.38 67.0806 17.19C67.0806 19 67.7606 19.99 68.8606 19.99C69.9606 19.99 70.6706 19 70.6706 17.2L70.6506 17.19ZM75.1306 12.26H78.3806V22.12H75.1806L75.1306 12.26ZM86.1806 22.26C88.6306 22.26 90.0706 20.4 90.0706 17.19L90.1306 17.2C90.1306 13.98 88.6806 12.13 86.1606 12.15C84.8602 12.0881 83.6605 12.8479 83.1606 14.05H83.1006V12.29H79.9106V25.29H83.1206V20.43H83.1806C83.6981 21.6086 84.8959 22.3392 86.1806 22.26ZM86.8006 17.19C86.8006 15.63 86.0706 14.62 84.9406 14.62C83.8106 14.62 83.1006 15.62 83.0906 17.19C83.0806 18.76 83.8106 19.75 84.9406 19.75C86.0706 19.75 86.8606 18.82 86.8606 17.2L86.8006 17.19ZM99.9306 15.34C99.9106 13.3 98.2406 12.03 95.5506 12.03L95.6106 12.04C92.9006 12.04 91.2206 13.29 91.1606 15.25C91.1606 16.76 92.1706 17.77 94.1006 18.18L95.9606 18.57C96.7306 18.73 97.0306 18.82 97.0306 19.35C97.0306 19.88 96.5906 20.18 95.6506 20.18C94.7106 20.18 94.1306 19.75 94.0406 19.02H90.9306C91.0606 21.03 92.8506 22.35 95.6006 22.35C98.3506 22.35 100.201 20.99 100.201 18.99C100.201 17.5 99.4006 16.7 97.4006 16.28L95.3406 15.86C94.6006 15.71 94.2306 15.55 94.2306 15.04C94.2306 14.53 94.6506 14.19 95.5306 14.19C96.4106 14.19 97.0006 14.63 97.0006 15.34H99.9306ZM110.951 22.11H107.841V20.26H107.781C107.422 21.5311 106.229 22.383 104.911 22.31C103.933 22.3418 102.988 21.9548 102.314 21.2462C101.64 20.5376 101.3 19.5748 101.381 18.6V12.27H104.591V17.91C104.591 19.07 105.201 19.7 106.201 19.7C106.675 19.6964 107.125 19.4874 107.434 19.1268C107.743 18.7662 107.88 18.2896 107.811 17.82V12.27H111.011L110.951 22.11ZM115.621 12.26H112.501L112.521 22.12H115.731V16.3C115.679 15.8907 115.806 15.4788 116.08 15.1703C116.354 14.8618 116.748 14.6867 117.161 14.69C118.041 14.69 118.531 15.22 118.531 16.22V22.12H121.591V16.28C121.535 15.8753 121.659 15.4666 121.93 15.1609C122.201 14.8553 122.592 14.6833 123.001 14.69C123.911 14.69 124.381 15.25 124.381 16.25V22.12H127.611V15.43C127.677 14.544 127.362 13.6718 126.745 13.0322C126.129 12.3926 125.268 12.0462 124.381 12.08C123.023 12.0164 121.792 12.874 121.381 14.17H121.241C121.003 12.8709 119.816 11.9656 118.501 12.08C117.2 12.0535 116.045 12.9082 115.691 14.16H115.621V12.26Z" fill="#696871"/>
<path fill-rule="evenodd" clip-rule="evenodd" d="M30.5406 9.93C30.5408 5.8564 28.0408 2.20027 24.2447 0.722524C20.4486 -0.75522 16.1347 0.248397 13.3806 3.25H0.900635V29.59H27.2506V17.28C29.3423 15.4091 30.5387 12.7363 30.5406 9.93ZM25.4706 9.93C25.4747 11.8804 24.3029 13.641 22.5021 14.3902C20.7013 15.1394 18.6265 14.7295 17.2459 13.3518C15.8653 11.9741 15.4511 9.90012 16.1966 8.09778C16.942 6.29544 18.7002 5.12 20.6506 5.12C23.3087 5.11999 25.4651 7.27189 25.4706 9.93ZM5.97063 24.52H22.1806V19.69C21.6749 19.7738 21.1633 19.8173 20.6506 19.82C15.1908 19.8145 10.7661 15.3898 10.7606 9.93C10.765 9.39006 10.8152 8.85146 10.9106 8.32H5.97063V24.52Z" fill="#696871"/>
</svg>
