<svg width="119" height="24" viewBox="0 0 119 24" fill="none" xmlns="http://www.w3.org/2000/svg">
<path d="M38.79 19.21C38.1952 19.2423 37.6069 19.0732 37.12 18.73C36.707 18.4239 36.4713 17.9338 36.49 17.42V8.15003C36.4802 8.0705 36.5075 7.99087 36.5642 7.93421C36.6209 7.87754 36.7005 7.85018 36.78 7.86003H38.46C38.65 7.86003 38.74 7.96003 38.74 8.15003V16.7C38.74 17.08 38.91 17.27 39.26 17.27C39.4084 17.2762 39.5568 17.2593 39.7 17.22C39.9 17.22 40.01 17.28 40.02 17.46L40.17 18.71C40.1846 18.7838 40.1666 18.8602 40.1205 18.9196C40.0745 18.9791 40.005 19.0157 39.93 19.02C39.562 19.1416 39.1775 19.2057 38.79 19.21Z" fill="#696871"/>
<path fill-rule="evenodd" clip-rule="evenodd" d="M42.24 18.14C43.9813 19.5787 46.4987 19.5787 48.24 18.14V18.13C49.7461 16.5594 49.7461 14.0807 48.24 12.51C46.4959 11.0792 43.9841 11.0792 42.24 12.51C40.6957 14.069 40.6957 16.5811 42.24 18.14ZM46.68 16.82C45.8684 17.5552 44.6316 17.5552 43.82 16.82C43.0869 15.9771 43.0869 14.7229 43.82 13.88C44.6316 13.1448 45.8684 13.1448 46.68 13.88C47.4131 14.7229 47.4131 15.9771 46.68 16.82Z" fill="#696871"/>
<path fill-rule="evenodd" clip-rule="evenodd" d="M58.9 11.98C58.9 11.79 58.81 11.69 58.62 11.69L56.96 11.7C56.8821 11.6935 56.8054 11.7223 56.7511 11.7785C56.6968 11.8347 56.6707 11.9124 56.68 11.99V12.15C56.0698 11.6833 55.318 11.4398 54.55 11.46C53.4965 11.4224 52.4724 11.8119 51.71 12.54C50.2114 14.0904 50.2114 16.5496 51.71 18.1C52.4689 18.8348 53.4945 19.2284 54.55 19.19C55.2964 19.2112 56.0285 18.9825 56.63 18.54V19.17C56.6504 19.6334 56.4806 20.0849 56.16 20.42C55.8092 20.7402 55.3443 20.906 54.87 20.88C54.4809 20.8879 54.0959 20.7985 53.75 20.62C53.4662 20.4666 53.249 20.2137 53.14 19.91C53.0849 19.775 52.9557 19.685 52.81 19.68H51.13C50.86 19.68 50.86 19.77 50.86 19.97C51.0007 20.7894 51.4751 21.5137 52.17 21.97C52.9751 22.4919 53.9212 22.7537 54.88 22.72C55.9416 22.7668 56.9814 22.4095 57.79 21.72C58.5277 21.0739 58.9354 20.13 58.9 19.15V11.98ZM56.11 16.82C55.7634 17.2101 55.2616 17.4262 54.74 17.41C54.2129 17.4253 53.7053 17.2098 53.35 16.82C52.9914 16.4082 52.802 15.8758 52.82 15.33C52.798 14.7788 52.9917 14.2407 53.36 13.83C53.7145 13.4391 54.2226 13.2234 54.75 13.24C55.2668 13.223 55.7646 13.4353 56.11 13.82C56.7938 14.7031 56.7938 15.9369 56.11 16.82Z" fill="#696871"/>
<path fill-rule="evenodd" clip-rule="evenodd" d="M61.5299 18.14C63.274 19.5708 65.7858 19.5708 67.5299 18.14V18.13C69.036 16.5594 69.036 14.0807 67.5299 12.51C65.7844 11.0831 63.2754 11.0831 61.5299 12.51C60.0226 14.084 60.0226 16.566 61.5299 18.14ZM64.5399 17.37C64.0057 17.3865 63.4871 17.1884 63.0999 16.82C62.3796 15.9724 62.3796 14.7277 63.0999 13.88C63.4871 13.5117 64.0057 13.3136 64.5399 13.33C65.0707 13.3163 65.5851 13.5141 65.9699 13.88C66.6903 14.7277 66.6903 15.9724 65.9699 16.82C65.5851 17.1859 65.0707 17.3838 64.5399 17.37Z" fill="#696871"/>
<path fill-rule="evenodd" clip-rule="evenodd" d="M70.36 9.99003C70.9067 10.4686 71.7232 10.4686 72.27 9.99003C72.5122 9.76143 72.6495 9.4431 72.6495 9.11003C72.6495 8.77697 72.5122 8.45863 72.27 8.23003C71.7185 7.76423 70.9115 7.76423 70.36 8.23003C70.1178 8.45863 69.9805 8.77697 69.9805 9.11003C69.9805 9.4431 70.1178 9.76143 70.36 9.99003ZM70.81 18.73C71.2982 19.0704 71.8855 19.2392 72.48 19.21C72.8708 19.2064 73.2587 19.1423 73.63 19.02C73.705 19.0157 73.7745 18.9791 73.8205 18.9196C73.8665 18.8602 73.8846 18.7838 73.87 18.71L73.72 17.46C73.71 17.28 73.6 17.22 73.4 17.22C73.2532 17.2586 73.1016 17.2755 72.95 17.27C72.61 17.27 72.44 17.08 72.44 16.7V11.98C72.44 11.79 72.35 11.69 72.16 11.69H70.48C70.4005 11.6802 70.3208 11.7075 70.2642 11.7642C70.2075 11.8209 70.1801 11.9005 70.19 11.98V17.42C70.1724 17.9313 70.4034 18.4195 70.81 18.73Z" fill="#696871"/>
<path fill-rule="evenodd" clip-rule="evenodd" d="M82.9099 12.53C82.142 11.7978 81.1101 11.4081 80.0499 11.45C79.1242 11.4299 78.2309 11.7915 77.5799 12.45C77.2366 11.7791 76.5206 11.3836 75.7699 11.45C75.4019 11.4433 75.0358 11.5043 74.6899 11.63C74.5451 11.6721 74.4492 11.8096 74.4599 11.96V13.14C74.4599 13.3 74.5699 13.38 74.7899 13.38H75.1199C75.2826 13.3562 75.4469 13.4106 75.5631 13.5268C75.6794 13.6431 75.7338 13.8074 75.7099 13.97V22.17C75.6954 22.2479 75.7201 22.3278 75.7761 22.3838C75.8321 22.4398 75.9121 22.4646 75.9899 22.45H77.6699C77.8599 22.45 77.9599 22.36 77.9599 22.17V18.56C78.5672 18.9985 79.3011 19.2267 80.0499 19.21C81.1121 19.2528 82.1456 18.8589 82.9099 18.12C84.377 16.5455 84.377 14.1046 82.9099 12.53ZM79.8699 17.4095C79.3488 17.4095 78.8502 17.1966 78.4899 16.82C78.1287 16.394 77.9396 15.8483 77.9599 15.29C77.9367 14.7313 78.1261 14.1846 78.4899 13.76C78.8502 13.3835 79.3488 13.1705 79.8699 13.1705C80.3911 13.1705 80.8896 13.3835 81.2499 13.76C81.6283 14.1772 81.8261 14.7274 81.7999 15.29C81.8228 15.8522 81.6255 16.4011 81.2499 16.82C80.8896 17.1966 80.3911 17.4095 79.8699 17.4095Z" fill="#696871"/>
<path d="M88.73 19.21C87.8323 19.2469 86.9421 19.0322 86.16 18.59C85.5243 18.2071 85.0974 17.5557 85 16.82C85 16.62 85.07 16.52 85.29 16.52H86.76C86.9026 16.5256 87.03 16.6106 87.09 16.74C87.3 17.28 87.85 17.55 88.73 17.55C89.0369 17.5641 89.3426 17.5022 89.62 17.37C89.8151 17.2819 89.9458 17.0936 89.96 16.88C89.96 16.62 89.8 16.44 89.48 16.32C89.1004 16.1937 88.708 16.1099 88.31 16.07C87.8385 16.0167 87.3709 15.9331 86.91 15.82C86.4618 15.7186 86.0543 15.4852 85.74 15.15C85.3658 14.6895 85.1997 14.0943 85.2812 13.5066C85.3627 12.9188 85.6846 12.3913 86.17 12.05C86.8908 11.5909 87.7365 11.3672 88.59 11.41C89.4164 11.3821 90.234 11.5865 90.95 12C91.5344 12.331 91.9385 12.9078 92.05 13.57C92.05 13.77 91.96 13.87 91.78 13.87H90.3C90.1725 13.8776 90.0534 13.8061 90 13.69C89.9011 13.4532 89.7149 13.2634 89.48 13.16C89.215 13.0214 88.919 12.9525 88.62 12.96C88.3269 12.9441 88.0345 13.0026 87.77 13.13C87.5794 13.2036 87.4527 13.3857 87.45 13.59C87.4631 13.8708 87.6578 14.1101 87.93 14.18C88.314 14.3248 88.7133 14.4254 89.12 14.48C89.5877 14.5416 90.0517 14.6284 90.51 14.74C90.9582 14.8415 91.3657 15.0748 91.68 15.41C92.0196 15.783 92.196 16.2763 92.17 16.78C92.1876 17.4832 91.8344 18.1439 91.24 18.52C90.4929 18.9997 89.6173 19.2403 88.73 19.21Z" fill="#696871"/>
<path d="M102.74 18.71C102.751 18.7818 102.733 18.8551 102.69 18.9134C102.647 18.9717 102.582 19.0102 102.51 19.02C102.145 19.1392 101.764 19.2033 101.38 19.21C100.607 19.2901 99.8484 18.9601 99.38 18.34C98.6736 18.9473 97.7602 19.2589 96.83 19.21C95.9565 19.2503 95.1067 18.9198 94.49 18.3C93.8779 17.6511 93.5566 16.781 93.6 15.89V11.98C93.6 11.79 93.69 11.69 93.88 11.69H95.56C95.75 11.69 95.84 11.79 95.84 11.98V15.59C95.8217 16.0398 95.9754 16.4796 96.27 16.82C96.5673 17.1355 96.9867 17.3069 97.42 17.29C97.8626 17.3094 98.2947 17.151 98.62 16.85C98.928 16.5326 99.0909 16.1018 99.07 15.66V11.98C99.07 11.79 99.16 11.69 99.35 11.69H101.05C101.24 11.69 101.33 11.79 101.33 11.98V16.69C101.33 17.08 101.5 17.27 101.83 17.27C101.985 17.276 102.14 17.2592 102.29 17.22C102.367 17.1986 102.449 17.2133 102.513 17.2601C102.577 17.3069 102.617 17.3805 102.62 17.46L102.74 18.71Z" fill="#696871"/>
<path d="M118.63 18.71C118.648 18.7825 118.633 18.8593 118.588 18.9193C118.544 18.9793 118.475 19.0163 118.4 19.02C118.028 19.1409 117.641 19.205 117.25 19.21C116.655 19.2407 116.068 19.0718 115.58 18.73C115.152 18.4327 114.9 17.9412 114.91 17.42V15.07C114.931 14.6216 114.781 14.1819 114.49 13.84C114.206 13.5235 113.795 13.3511 113.37 13.37C112.987 13.3556 112.618 13.5177 112.37 13.81C112.106 14.1451 111.971 14.5639 111.99 14.99V18.68C111.99 18.87 111.9 18.97 111.71 18.97H110.02C109.94 18.9799 109.861 18.9525 109.804 18.8959C109.747 18.8392 109.72 18.7596 109.73 18.68V15.07C109.752 14.6265 109.613 14.1899 109.34 13.84C109.093 13.5425 108.727 13.3702 108.34 13.37C107.927 13.3534 107.527 13.5134 107.24 13.81C106.954 14.1344 106.807 14.5582 106.83 14.99V18.68C106.84 18.7596 106.812 18.8392 106.756 18.8959C106.699 18.9525 106.619 18.9799 106.54 18.97H104.91C104.72 18.97 104.63 18.87 104.63 18.68V13.97C104.654 13.8074 104.599 13.6431 104.483 13.5268C104.367 13.4106 104.203 13.3562 104.04 13.38H103.71C103.49 13.38 103.38 13.3 103.38 13.14V11.96C103.369 11.8096 103.465 11.6721 103.61 11.63C103.956 11.5043 104.322 11.4433 104.69 11.45C105.411 11.3886 106.103 11.7464 106.47 12.37C107.152 11.7236 108.072 11.3903 109.01 11.45C109.924 11.4054 110.804 11.7991 111.38 12.51C112.05 11.7817 113.012 11.3926 114 11.45C114.882 11.4087 115.742 11.7387 116.37 12.36C116.984 13.0077 117.306 13.8787 117.26 14.77V16.7C117.26 17.08 117.43 17.27 117.75 17.27C117.905 17.2773 118.06 17.2604 118.21 17.22C118.417 17.22 118.527 17.3 118.54 17.46L118.63 18.71Z" fill="#696871"/>
<path fill-rule="evenodd" clip-rule="evenodd" d="M1.36996 10.39C2.88804 4.28837 8.36729 0.00531006 14.655 0.00531006C20.9426 0.00531006 26.4219 4.28837 27.94 10.39H26.74C24.7156 10.3602 22.7328 10.9652 21.07 12.12C20.974 12.1895 20.8738 12.253 20.77 12.31H20.63C20.5261 12.253 20.4259 12.1895 20.33 12.12C16.8985 9.81255 12.4115 9.81255 8.97996 12.12C8.88399 12.1895 8.7838 12.253 8.67996 12.31H8.53996C8.43612 12.253 8.33593 12.1895 8.23996 12.12C6.57709 10.9652 4.59428 10.3602 2.56996 10.39H1.36996ZM24.58 16.66C25.196 16.1803 25.9595 15.9293 26.74 15.95H28.35V12.74H26.74C25.3652 12.7234 24.0218 13.1513 22.91 13.96C21.6256 14.9069 19.8743 14.9069 18.59 13.96C16.255 12.3346 13.1549 12.3346 10.82 13.96C9.53561 14.9069 7.78431 14.9069 6.49996 13.96C5.37436 13.141 4.01176 12.7125 2.61996 12.74H0.959961V15.95H2.56996C3.35047 15.9293 4.11395 16.1803 4.72996 16.66C7.0609 18.2866 10.159 18.2866 12.49 16.66C13.1068 16.1818 13.8697 15.931 14.65 15.95C15.4307 15.9277 16.1947 16.1788 16.81 16.66C19.1449 18.2855 22.245 18.2855 24.58 16.66ZM26.74 21.69C25.9595 21.6693 25.196 21.9203 24.58 22.4C22.245 24.0255 19.1449 24.0255 16.81 22.4C16.1947 21.9188 15.4307 21.6677 14.65 21.69C13.8697 21.671 13.1068 21.9218 12.49 22.4C10.159 24.0266 7.0609 24.0266 4.72996 22.4C4.11395 21.9203 3.35047 21.6693 2.56996 21.69H0.959961V18.48H2.61996C4.01176 18.4525 5.37436 18.881 6.49996 19.7C7.78431 20.6469 9.53561 20.6469 10.82 19.7C13.1549 18.0746 16.255 18.0746 18.59 19.7C19.8743 20.6469 21.6256 20.6469 22.91 19.7C24.0218 18.8913 25.3652 18.4634 26.74 18.48H28.35V21.69H26.74Z" fill="#696871"/>
</svg>
