<svg width="124" height="30" viewBox="0 0 124 30" fill="none" xmlns="http://www.w3.org/2000/svg">
<path d="M26.6401 10.53C27.0001 10.53 27.1201 10.66 27.1201 11.01V18.93H31.1901C31.5401 18.93 31.6701 19.06 31.6701 19.41V20.11C31.6701 20.46 31.5401 20.59 31.1901 20.59H25.8301C25.4801 20.59 25.3401 20.46 25.3401 20.11V11.01C25.3401 10.66 25.4801 10.53 25.8301 10.53H26.6401Z" fill="#696871"/>
<path fill-rule="evenodd" clip-rule="evenodd" d="M39.2201 10.32C36.6801 10.32 35.2201 11.71 35.2201 14.02V17.1C35.2201 19.41 36.6901 20.8 39.2201 20.8C41.7501 20.8 43.2201 19.41 43.2201 17.1V14.02C43.2201 11.71 41.7601 10.32 39.2201 10.32ZM39.2701 12.02C40.7301 12.02 41.5401 12.72 41.5401 14.02V17.12C41.5401 18.4 40.7301 19.12 39.2701 19.12C37.8101 19.12 37.0101 18.43 37.0101 17.12V14.02C37.0101 12.73 37.8101 12.02 39.2701 12.02Z" fill="#696871"/>
<path d="M55.1302 15.08C55.5202 15.08 55.6102 15.21 55.6102 15.56V17.46C55.6316 18.3664 55.242 19.2339 54.5502 19.82C53.7019 20.4955 52.6323 20.8307 51.5502 20.76C48.9602 20.76 47.5502 19.37 47.5502 17.06V13.96C47.5502 11.68 49.0102 10.28 51.5502 10.28C53.5502 10.28 54.8502 11.07 55.4002 12.65C55.4625 12.7704 55.4645 12.9131 55.4055 13.0352C55.3464 13.1572 55.2333 13.2442 55.1002 13.27L54.3202 13.54C53.9802 13.66 53.8402 13.59 53.7202 13.24C53.3794 12.3613 52.4857 11.8259 51.5502 11.94C50.0802 11.94 49.2802 12.65 49.2802 13.94V17.12C49.2802 18.43 50.0902 19.12 51.5502 19.12C53.0102 19.12 53.9102 18.45 53.9102 17.47V16.73H51.7402C51.3802 16.73 51.2502 16.59 51.2502 16.24V15.56C51.2502 15.21 51.3802 15.08 51.7402 15.08H55.1302Z" fill="#696871"/>
<path fill-rule="evenodd" clip-rule="evenodd" d="M63.7401 10.32C61.2001 10.32 59.7401 11.71 59.7401 14.02V17.1C59.7401 19.41 61.2101 20.8 63.7401 20.8C66.2701 20.8 67.7401 19.41 67.7401 17.1V14.02C67.7401 11.71 66.2801 10.32 63.7401 10.32ZM63.7901 12.02C65.2401 12.02 66.0501 12.72 66.0501 14.02V17.12C66.0501 18.4 65.2501 19.12 63.7901 19.12C62.3301 19.12 61.5201 18.43 61.5201 17.12V14.02C61.5201 12.73 62.3401 12.02 63.7901 12.02Z" fill="#696871"/>
<path d="M72.4501 10.82C72.4501 10.6 72.5201 10.53 72.7401 10.53H73.2001C73.4201 10.53 73.4701 10.6 73.4701 10.82V20.3C73.4701 20.52 73.4701 20.59 73.2001 20.59H72.7401C72.5201 20.59 72.4501 20.52 72.4501 20.3V10.82Z" fill="#696871"/>
<path fill-rule="evenodd" clip-rule="evenodd" d="M85.7201 13.67C85.7201 11.9358 84.3142 10.53 82.5801 10.53H78.8501C78.6401 10.53 78.5601 10.6 78.5601 10.82V20.3C78.5601 20.52 78.6401 20.59 78.8501 20.59H79.3201C79.5301 20.59 79.5801 20.52 79.5801 20.3V16.81H82.5801C84.3142 16.81 85.7201 15.4042 85.7201 13.67ZM84.378 14.73C83.9886 15.4045 83.2689 15.82 82.4901 15.82H79.4901V11.46H82.4901C83.2689 11.46 83.9886 11.8755 84.378 12.55C84.7674 13.2245 84.7674 14.0555 84.378 14.73Z" fill="#696871"/>
<path d="M93.5302 10.33C95.1156 10.155 96.6279 11.0413 97.2502 12.51C97.3302 12.67 97.2502 12.8 97.0902 12.88L96.6502 13.08C96.4702 13.15 96.4002 13.14 96.2902 12.95C95.8253 11.8608 94.7091 11.1975 93.5302 11.31C91.8402 11.31 90.9202 11.98 90.9202 13.18C90.8999 13.9383 91.4418 14.5955 92.1902 14.72C92.728 14.8954 93.2857 15.0029 93.8502 15.04C94.5335 15.0765 95.2076 15.2146 95.8502 15.45C96.8655 15.7713 97.5166 16.7604 97.4102 17.82C97.4102 19.69 96.0502 20.82 93.5502 20.82C91.8605 21.0133 90.265 20.0011 89.7202 18.39C89.6844 18.3178 89.6828 18.2335 89.7157 18.16C89.7486 18.0865 89.8125 18.0315 89.8902 18.01L90.3302 17.85C90.4002 17.8214 90.4791 17.8235 90.5476 17.8558C90.616 17.8881 90.6677 17.9477 90.6902 18.02C91.1492 19.1793 92.3064 19.9076 93.5502 19.82C95.4402 19.82 96.3702 19.16 96.3702 17.82C96.4065 17.0926 95.9117 16.4455 95.2002 16.29C94.6827 16.1357 94.1492 16.0417 93.6102 16.01L92.5302 15.87C92.1922 15.7983 91.8583 15.7081 91.5302 15.6C91.206 15.5021 90.9038 15.3425 90.6402 15.13C90.1032 14.6437 89.81 13.9439 89.8402 13.22C89.9102 11.47 91.2202 10.33 93.5302 10.33Z" fill="#696871"/>
<path d="M102.8 17.17C102.888 18.638 104.105 19.7834 105.575 19.7834C107.046 19.7834 108.262 18.638 108.35 17.17V10.82C108.35 10.6 108.42 10.53 108.64 10.53H109.1C109.32 10.53 109.39 10.6 109.39 10.82V17.16C109.39 19.43 108.05 20.8 105.58 20.8C103.11 20.8 101.77 19.43 101.77 17.16V10.82C101.77 10.6 101.84 10.53 102.05 10.53H102.52C102.73 10.53 102.8 10.6 102.8 10.82V17.17Z" fill="#696871"/>
<path d="M123.19 10.53C123.41 10.53 123.48 10.6 123.48 10.82V20.3C123.48 20.52 123.41 20.59 123.19 20.59H122.77C122.56 20.59 122.49 20.52 122.49 20.3V14.53C122.49 13.6905 122.547 12.8519 122.66 12.02H122.6C122.288 12.7807 121.923 13.5191 121.51 14.23L119.36 18.02C119.306 18.1546 119.175 18.2421 119.03 18.24H118.75C118.603 18.2407 118.47 18.1544 118.41 18.02L116.23 14.19C115.843 13.4893 115.509 12.7606 115.23 12.01H115.17C115.273 12.8495 115.326 13.6943 115.33 14.54V20.3C115.33 20.52 115.26 20.59 115.04 20.59H114.65C114.43 20.59 114.36 20.52 114.36 20.3V10.82C114.36 10.6 114.43 10.53 114.65 10.53H115.01C115.179 10.5143 115.339 10.6064 115.41 10.76L118.91 16.98L122.39 10.82C122.5 10.61 122.56 10.58 122.78 10.58L123.19 10.53Z" fill="#696871"/>
<path fill-rule="evenodd" clip-rule="evenodd" d="M2.22012 1.51002V21.82C2.22012 22.0693 2.12108 22.3084 1.9448 22.4847C1.76851 22.661 1.52942 22.76 1.28012 22.76H1.06012C0.540969 22.76 0.120117 22.3392 0.120117 21.82V1.51002C0.125599 0.994779 0.54485 0.579988 1.06012 0.580017H1.28012C1.79538 0.579988 2.21464 0.994779 2.22012 1.51002ZM13.7505 14.3846C13.949 14.1956 14.2163 14.0963 14.4901 14.11L14.4401 14.13C14.7311 14.1003 15.0205 14.1995 15.2321 14.4015C15.4437 14.6035 15.5563 14.888 15.5401 15.18V20.68C15.5401 21.2599 15.07 21.73 14.4901 21.73C13.9102 21.73 13.4401 21.2599 13.4401 20.68V15.11C13.4398 14.8359 13.552 14.5737 13.7505 14.3846ZM16.7501 17.28C16.7501 16.7277 17.1978 16.28 17.7501 16.28C18.0395 16.2534 18.3261 16.354 18.5354 16.5556C18.7446 16.7572 18.8559 17.0399 18.8401 17.33V18.54C18.8401 19.1172 18.3723 19.585 17.7951 19.585C17.218 19.585 16.7501 19.1172 16.7501 18.54V17.28ZM8.85012 25.6V18.37C8.53741 18.6077 8.15276 18.7312 7.76012 18.72C7.39995 18.7111 7.05108 18.5925 6.76012 18.38V25.6C6.76012 26.1772 7.22798 26.645 7.80512 26.645C8.38225 26.645 8.85012 26.1772 8.85012 25.6ZM4.49012 21.11C4.13028 21.0992 3.78195 20.9808 3.49012 20.77V28.02C3.49012 28.5999 3.96022 29.07 4.54012 29.07C5.12002 29.07 5.59012 28.5999 5.59012 28.02V20.82C5.26357 21.0311 4.87828 21.1327 4.49012 21.11ZM11.1701 16.25C10.7935 16.2474 10.4268 16.1287 10.1201 15.91V23.18C10.1201 23.7599 10.5902 24.23 11.1701 24.23C11.75 24.23 12.2201 23.7599 12.2201 23.18V15.92C11.9029 16.1563 11.5156 16.2796 11.1201 16.27L11.1701 16.25ZM4.60012 20.34H4.38012C3.86097 20.34 3.44012 19.9192 3.44012 19.4V3.93002C3.4456 3.41478 3.86485 2.99999 4.38012 3.00002H4.60012C5.11538 2.99999 5.53464 3.41478 5.54012 3.93002V19.42C5.54012 19.9392 5.11926 20.36 4.60012 20.36V20.34ZM7.68012 17.96H7.91012C8.42374 17.96 8.84012 17.5436 8.84012 17.03V6.33002C8.84015 5.81475 8.42536 5.3955 7.91012 5.39002H7.68012C7.43172 5.39 7.19365 5.48936 7.01895 5.66593C6.84425 5.84251 6.74745 6.08164 6.75012 6.33002V17.03C6.75012 17.5436 7.16649 17.96 7.68012 17.96ZM11.2201 15.51H11.0101C10.4949 15.51 10.0756 15.0953 10.0701 14.58V8.82002C10.0535 8.56049 10.1452 8.30568 10.3233 8.1162C10.5014 7.92671 10.7501 7.81949 11.0101 7.82002H11.2301C11.7493 7.82002 12.1701 8.24087 12.1701 8.76002V14.56C12.1728 14.811 12.0749 15.0527 11.8984 15.2312C11.7218 15.4096 11.4812 15.51 11.2301 15.51H11.2201ZM14.3201 13.36H14.5401H14.5501C15.0654 13.3545 15.4801 12.9353 15.4801 12.42V10.93C15.4746 10.4148 15.0554 9.99999 14.5401 10H14.3201C13.8048 9.99999 13.3856 10.4148 13.3801 10.93V12.42C13.3801 12.9392 13.801 13.36 14.3201 13.36Z" fill="#696871"/>
</svg>
