<svg width="101" height="48" viewBox="0 0 101 48" fill="none" xmlns="http://www.w3.org/2000/svg">
<path d="M0.700195 28.61H3.7002V43.32H0.700195V28.61Z" fill="#696871"/>
<path fill-rule="evenodd" clip-rule="evenodd" d="M8.72971 33.3394C6.73462 34.169 5.43614 36.1193 5.44018 38.28C5.42665 39.6994 5.98523 41.0646 6.98992 42.0674C7.99461 43.0702 9.36076 43.6262 10.7802 43.61C12.9409 43.61 14.8887 42.3079 15.7146 40.3112C16.5406 38.3146 16.0819 36.017 14.5526 34.4905C13.0233 32.9641 10.7248 32.5097 8.72971 33.3394ZM10.7412 36.0203C12.0144 35.9985 13.0672 37.007 13.1002 38.28C13.134 38.9105 12.9025 39.5263 12.4617 39.9784C12.021 40.4305 11.4113 40.6777 10.7802 40.66C9.50679 40.6596 8.47173 39.6328 8.46104 38.3595C8.45034 37.0861 9.46801 36.0422 10.7412 36.0203Z" fill="#696871"/>
<path fill-rule="evenodd" clip-rule="evenodd" d="M28.1802 42.82V33.24L25.2302 33.27V34.27C24.5118 33.3939 23.422 32.9083 22.2902 32.96C19.4625 32.96 17.1702 35.2523 17.1702 38.08C17.1702 40.9077 19.4625 43.2 22.2902 43.2C23.4229 43.2566 24.5148 42.77 25.2302 41.89V42.82C25.2883 43.438 25.0561 44.048 24.6018 44.471C24.1475 44.894 23.5225 45.082 22.9102 44.98C21.9708 45.0577 21.0791 44.5544 20.6602 43.71L18.0802 45.2C19.0886 46.8415 20.9289 47.7829 22.8502 47.64C25.5302 47.64 28.1802 46.21 28.1802 42.82ZM23.7953 35.7557C24.7031 36.1651 25.271 37.085 25.2302 38.08C25.2487 38.7238 24.9941 39.3454 24.5292 39.7913C24.0644 40.2371 23.4326 40.4655 22.7902 40.42C21.7944 40.4192 20.899 39.8133 20.5279 38.8892C20.1569 37.9651 20.3846 36.9082 21.1033 36.219C21.8221 35.5297 22.8875 35.3463 23.7953 35.7557Z" fill="#696871"/>
<path fill-rule="evenodd" clip-rule="evenodd" d="M33.1997 33.3394C31.2046 34.169 29.9061 36.1193 29.9102 38.28C29.8966 39.6994 30.4552 41.0646 31.4599 42.0674C32.4646 43.0702 33.8307 43.6262 35.2502 43.61C37.4109 43.61 39.3587 42.3079 40.1846 40.3112C41.0106 38.3146 40.5519 36.017 39.0226 34.4905C37.4932 32.9641 35.1948 32.5097 33.1997 33.3394ZM35.2112 36.0203C36.4844 35.9985 37.5372 37.007 37.5702 38.28H37.5502C37.5836 38.9069 37.3548 39.5195 36.9185 39.9709C36.4822 40.4224 35.8778 40.672 35.2502 40.66C33.9768 40.6596 32.9417 39.6328 32.931 38.3595C32.9203 37.0861 33.938 36.0422 35.2112 36.0203Z" fill="#696871"/>
<path fill-rule="evenodd" clip-rule="evenodd" d="M43.8002 28.72C42.7951 28.72 41.9802 29.5348 41.9802 30.54C41.9857 31.5429 42.7973 32.3545 43.8002 32.36C44.8054 32.36 45.6202 31.5452 45.6202 30.54C45.6202 29.5348 44.8054 28.72 43.8002 28.72ZM45.2902 33.24H42.2902V43.32H45.2902V33.24Z" fill="#696871"/>
<path fill-rule="evenodd" clip-rule="evenodd" d="M57.0742 41.9458C57.9772 40.9452 58.4436 39.6258 58.3702 38.28C58.4409 36.9359 57.9732 35.619 57.0705 34.6206C56.1678 33.6222 54.9046 33.0246 53.5602 32.96C52.4274 32.9056 51.3288 33.3561 50.5602 34.19V33.24H47.5602V47.38H50.5602V42.38C51.3288 43.2139 52.4274 43.6644 53.5602 43.61C54.9064 43.5454 56.1712 42.9464 57.0742 41.9458ZM52.9507 35.9409C54.2603 35.9298 55.337 36.9707 55.3702 38.28H55.3502C55.3977 38.9423 55.1567 39.5929 54.6891 40.0643C54.2214 40.5358 53.5729 40.7821 52.9102 40.74C51.6009 40.7068 50.56 39.6302 50.571 38.3205C50.5821 37.0109 51.6411 35.9519 52.9507 35.9409Z" fill="#696871"/>
<path d="M67.7102 40.3C67.7102 42.62 65.7102 43.61 63.5102 43.61C61.7122 43.7692 59.9981 42.8191 59.1802 41.21L61.8002 39.72C62.0193 40.4695 62.7312 40.9649 63.5102 40.91C64.2402 40.91 64.6002 40.68 64.6002 40.28C64.6002 39.17 59.6002 39.76 59.6002 36.28C59.6002 34.08 61.4602 32.97 63.6002 32.97C65.2083 32.9211 66.7165 33.748 67.5402 35.13L64.9102 36.51C64.6728 35.9704 64.1396 35.6215 63.5502 35.62C63.0302 35.62 62.7102 35.82 62.7102 36.19C62.7502 37.34 67.7102 36.57 67.7102 40.3Z" fill="#696871"/>
<path d="M78.7502 33.24V43.32H75.7502V42.38C75.0423 43.2272 73.9717 43.6844 72.8702 43.61C70.8702 43.61 69.1002 42.16 69.1002 39.43V33.24H72.1002V38.99C72.0468 39.4862 72.2195 39.9802 72.5705 40.335C72.9214 40.6899 73.4134 40.868 73.9102 40.82C75.0102 40.82 75.7802 40.18 75.7802 38.75V33.24H78.7502Z" fill="#696871"/>
<path d="M96.0902 37.14V43.32H93.0902V37.4C93.0902 36.4 92.6002 35.74 91.6402 35.74C90.6802 35.74 90.0602 36.45 90.0602 37.64V43.32H87.0602V37.4C87.0602 36.4 86.5802 35.74 85.6102 35.74C84.6402 35.74 84.0402 36.45 84.0402 37.64V43.32H81.0402V33.24H84.0402V34.17C84.6772 33.3355 85.6933 32.8801 86.7402 32.96C87.7927 32.9089 88.7948 33.4138 89.3802 34.29C90.0604 33.3745 91.163 32.8723 92.3002 32.96C94.5802 32.96 96.0902 34.62 96.0902 37.14Z" fill="#696871"/>
<path d="M98.6502 33.18C99.8873 33.18 100.89 32.1771 100.89 30.94C100.89 29.7029 99.8873 28.7 98.6502 28.7C97.413 28.7 96.4102 29.7029 96.4102 30.94C96.4102 32.1771 97.413 33.18 98.6502 33.18Z" fill="#696871"/>
<path d="M34.6502 20.98C40.4436 20.98 45.1402 16.2835 45.1402 10.49C45.1402 4.69653 40.4436 0 34.6502 0C28.8567 0 24.1602 4.69653 24.1602 10.49C24.1602 16.2835 28.8567 20.98 34.6502 20.98Z" fill="#696871"/>
<path d="M58.1002 20.98C63.8937 20.98 68.5902 16.2835 68.5902 10.49C68.5902 4.69653 63.8937 0 58.1002 0C52.3068 0 47.6102 4.69653 47.6102 10.49C47.6102 16.2835 52.3068 20.98 58.1002 20.98Z" fill="#696871"/>
<rect x="0.720215" width="20.97" height="20.97" fill="#696871"/>
</svg>
