<svg width="24" height="25" viewBox="0 0 24 25" fill="none" xmlns="http://www.w3.org/2000/svg">
<path fill-rule="evenodd" clip-rule="evenodd" d="M11.0912 0.387369C9.75299 0.612088 8.33871 1.22967 6.77511 2.272C6.24456 2.62569 5.44862 3.23243 5.02602 3.6054L4.7868 3.81651L5.93343 5.70893L7.08006 7.60135L7.0802 8.19538C7.08057 9.9084 7.51167 11.0919 8.51962 12.1469L8.86565 12.5091L8.52412 12.6122C8.33623 12.6689 7.95031 12.8098 7.66648 12.9252C3.96852 14.4291 1.27237 17.8569 0.629647 21.8715C0.526529 22.5157 0.453766 23.617 0.488951 24.0013L0.520102 24.3414H12.1924H23.8647L23.8965 24.1291C23.9593 23.7102 23.8347 22.2416 23.6618 21.3624C23.3139 19.5944 22.6122 18.0487 21.4691 16.5321C21.0611 15.9908 19.855 14.8041 19.2707 14.3689C18.3222 13.6626 17.1629 13.0517 16.0625 12.6785L15.5449 12.5029L15.8643 12.1759C16.6068 11.4155 17.1073 10.385 17.257 9.30856C17.2847 9.10959 17.3073 8.66762 17.3073 8.32641V7.70597L17.4987 7.52052C17.7472 7.27985 18.1579 6.66054 18.3063 6.30296C18.7226 5.29928 18.6493 4.04071 18.1239 3.1759C17.5311 2.20008 16.4563 1.635 15.193 1.635H14.7636L14.3898 1.28338C13.9815 0.899249 13.3983 0.573196 12.8739 0.435925C12.4863 0.33445 11.5571 0.309117 11.0912 0.387369ZM12.6783 1.91189C13.1465 2.07618 13.4777 2.36794 13.8817 2.97206C13.9679 3.10107 14.0407 3.21038 14.0432 3.21498C14.0458 3.21957 14.1954 3.19143 14.3757 3.15239C14.8386 3.05228 15.6416 3.08986 16.007 3.22872C16.73 3.50345 17.1307 4.11502 17.1275 4.93869C17.1266 5.15896 17.0919 5.37575 17.0287 5.55599C16.929 5.8401 16.5682 6.42024 16.4912 6.42024C16.4677 6.42024 16.0333 6.08504 15.526 5.67539C15.0187 5.26573 14.5628 4.9059 14.5128 4.87574C14.4376 4.83028 13.8902 4.96914 11.3031 5.69002C8.86701 6.36878 8.1725 6.54644 8.13154 6.5014C8.05643 6.41874 6.70465 4.17371 6.70517 4.13243C6.70573 4.08209 7.6328 3.44209 8.20492 3.09703C9.30862 2.43137 10.3068 2.01079 11.185 1.84133C11.63 1.75548 12.3264 1.78837 12.6783 1.91189ZM14.9896 7.11223L15.8608 7.80421L15.8369 8.48446C15.808 9.30818 15.7091 9.73318 15.4 10.3609C15.2182 10.7301 15.1115 10.8755 14.7778 11.2093C14.444 11.543 14.2985 11.6497 13.9294 11.8315C13.3127 12.1351 12.8748 12.2376 12.1937 12.2376C10.7499 12.2376 9.55158 11.5172 8.95521 10.2907C8.71633 9.79932 8.58924 9.25038 8.55123 8.54578L8.52037 7.97371L8.6361 7.94467C8.69972 7.92872 9.94318 7.58174 11.3993 7.17368C12.8554 6.76562 14.0629 6.4292 14.0826 6.42601C14.1023 6.42282 14.5104 6.73161 14.9896 7.11223ZM14.2279 13.8444C14.0999 14.056 12.2257 16.6006 12.198 16.6006C12.1698 16.6006 10.6262 14.5111 10.2333 13.9413L10.1261 13.7858H12.1948C13.8374 13.7858 14.2561 13.7978 14.2279 13.8444ZM9.59714 15.5454C10.1444 16.2935 10.5937 16.921 10.5954 16.9398C10.5972 16.9587 10.15 16.9798 9.60169 16.9867L8.60476 16.9994V19.1809V21.3624L12.2059 21.3744L15.807 21.3864L15.7948 19.1929L15.7826 16.9994L14.7813 16.9759L13.78 16.9525L14.7983 15.553C15.9626 13.9528 15.7679 14.0859 16.479 14.4044C17.6617 14.9343 18.6219 15.6151 19.586 16.6073C21.1873 18.2553 22.1513 20.3287 22.391 22.6408L22.4166 22.8871H12.2009H1.98518L2.02239 22.5022C2.19301 20.7371 2.89968 19.0025 4.09139 17.4237C4.46089 16.9342 5.4489 15.9476 5.9438 15.5739C6.60702 15.0732 7.2854 14.6808 8.11217 14.3198C8.30569 14.2353 8.49508 14.1705 8.53303 14.1757C8.57099 14.181 9.04979 14.7973 9.59714 15.5454ZM14.3412 19.1926L14.3283 19.908H12.1937H10.0591L10.0462 19.1926L10.0332 18.4772H12.1937H14.3542L14.3412 19.1926Z" fill="#303C6C"/>
</svg>
