<svg width="24" height="25" viewBox="0 0 24 25" fill="none" xmlns="http://www.w3.org/2000/svg">
<g clip-path="url(#clip0_201_107)">
<path d="M19.43 13.3214C19.47 13.0014 19.5 12.6814 19.5 12.3414C19.5 12.0014 19.47 11.6814 19.43 11.3614L21.54 9.71143C21.73 9.56143 21.78 9.29143 21.66 9.07143L19.66 5.61143C19.57 5.45143 19.4 5.36143 19.22 5.36143C19.16 5.36143 19.1 5.37143 19.05 5.39143L16.56 6.39143C16.04 5.99143 15.48 5.66143 14.87 5.41143L14.49 2.76143C14.46 2.52143 14.25 2.34143 14 2.34143H9.99996C9.74996 2.34143 9.53996 2.52143 9.50996 2.76143L9.12996 5.41143C8.51996 5.66143 7.95996 6.00143 7.43996 6.39143L4.94996 5.39143C4.88996 5.37143 4.82996 5.36143 4.76996 5.36143C4.59996 5.36143 4.42996 5.45143 4.33996 5.61143L2.33996 9.07143C2.20996 9.29143 2.26996 9.56143 2.45996 9.71143L4.56996 11.3614C4.52996 11.6814 4.49996 12.0114 4.49996 12.3414C4.49996 12.6714 4.52996 13.0014 4.56996 13.3214L2.45996 14.9714C2.26996 15.1214 2.21996 15.3914 2.33996 15.6114L4.33996 19.0714C4.42996 19.2314 4.59996 19.3214 4.77996 19.3214C4.83996 19.3214 4.89996 19.3114 4.94996 19.2914L7.43996 18.2914C7.95996 18.6914 8.51996 19.0214 9.12996 19.2714L9.50996 21.9214C9.53996 22.1614 9.74996 22.3414 9.99996 22.3414H14C14.25 22.3414 14.46 22.1614 14.49 21.9214L14.87 19.2714C15.48 19.0214 16.04 18.6814 16.56 18.2914L19.05 19.2914C19.11 19.3114 19.17 19.3214 19.23 19.3214C19.4 19.3214 19.57 19.2314 19.66 19.0714L21.66 15.6114C21.78 15.3914 21.73 15.1214 21.54 14.9714L19.43 13.3214ZM17.45 11.6114C17.49 11.9214 17.5 12.1314 17.5 12.3414C17.5 12.5514 17.48 12.7714 17.45 13.0714L17.31 14.2014L18.2 14.9014L19.28 15.7414L18.58 16.9514L17.31 16.4414L16.27 16.0214L15.37 16.7014C14.94 17.0214 14.53 17.2614 14.12 17.4314L13.06 17.8614L12.9 18.9914L12.7 20.3414H11.3L11.11 18.9914L10.95 17.8614L9.88996 17.4314C9.45996 17.2514 9.05996 17.0214 8.65996 16.7214L7.74996 16.0214L6.68996 16.4514L5.41996 16.9614L4.71996 15.7514L5.79996 14.9114L6.68996 14.2114L6.54996 13.0814C6.51996 12.7714 6.49996 12.5414 6.49996 12.3414C6.49996 12.1414 6.51996 11.9114 6.54996 11.6114L6.68996 10.4814L5.79996 9.78143L4.71996 8.94143L5.41996 7.73143L6.68996 8.24143L7.72996 8.66143L8.62996 7.98143C9.05996 7.66143 9.46996 7.42143 9.87996 7.25143L10.94 6.82143L11.1 5.69143L11.3 4.34143H12.69L12.88 5.69143L13.04 6.82143L14.1 7.25143C14.53 7.43143 14.93 7.66143 15.33 7.96143L16.24 8.66143L17.3 8.23143L18.57 7.72143L19.27 8.93143L18.2 9.78143L17.31 10.4814L17.45 11.6114ZM12 8.34143C9.78996 8.34143 7.99996 10.1314 7.99996 12.3414C7.99996 14.5514 9.78996 16.3414 12 16.3414C14.21 16.3414 16 14.5514 16 12.3414C16 10.1314 14.21 8.34143 12 8.34143ZM12 14.3414C10.9 14.3414 9.99996 13.4414 9.99996 12.3414C9.99996 11.2414 10.9 10.3414 12 10.3414C13.1 10.3414 14 11.2414 14 12.3414C14 13.4414 13.1 14.3414 12 14.3414Z" fill="white"/>
</g>
<defs>
<clipPath id="clip0_201_107">
<rect width="24" height="24" fill="white" transform="translate(0 0.341431)"/>
</clipPath>
</defs>
</svg>
