<svg width="19" height="19" viewBox="0 0 19 19" fill="none" xmlns="http://www.w3.org/2000/svg">
<path d="M9 0.341432C4.03725 0.341432 0 4.37868 0 9.34143C0 14.3042 4.03725 18.3414 9 18.3414C12.0375 18.3414 14.73 16.8324 16.3597 14.5209L15.141 13.6539C14.4492 14.6399 13.5297 15.4445 12.4607 15.9994C11.3916 16.5543 10.2045 16.8432 9 16.8414C4.84875 16.8414 1.5 13.4927 1.5 9.34143C1.5 5.19018 4.84875 1.84143 9 1.84143C10.2044 1.84003 11.3915 2.12901 12.4605 2.68388C13.5295 3.23875 14.449 4.04316 15.141 5.02893L16.3597 4.16193C15.5298 2.9811 14.4277 2.01745 13.1467 1.35247C11.8656 0.687478 10.4433 0.340694 9 0.341432ZM14.508 5.80218L13.4295 6.88068L15.141 8.59143H6V10.0914H15.141L13.4295 11.8022L14.508 12.8807L17.508 9.88068L18.0225 9.34143L17.5072 8.80218L14.508 5.80218Z" fill="#4B5563"/>
</svg>
